<svg width="2930" height="1750" xmlns="http://www.w3.org/2000/svg" xmlns:xlink="http://www.w3.org/1999/xlink" xml:space="preserve" overflow="hidden"><defs><clipPath id="clip0"><rect x="1489" y="803" width="2930" height="1750"/></clipPath><clipPath id="clip1"><rect x="1490" y="804" width="2927" height="1746"/></clipPath><clipPath id="clip2"><rect x="1748" y="1103" width="2427" height="1022"/></clipPath><clipPath id="clip3"><rect x="1490" y="804" width="2927" height="1746"/></clipPath><clipPath id="clip4"><rect x="1490" y="804" width="2927" height="1746"/></clipPath><clipPath id="clip5"><rect x="1490" y="804" width="2927" height="1746"/></clipPath><clipPath id="clip6"><rect x="1490" y="804" width="2927" height="1746"/></clipPath><clipPath id="clip7"><rect x="1490" y="804" width="2927" height="1746"/></clipPath><clipPath id="clip8"><rect x="1490" y="804" width="2927" height="1746"/></clipPath><clipPath id="clip9"><rect x="1490" y="804" width="2927" height="1746"/></clipPath><clipPath id="clip10"><rect x="1490" y="804" width="2927" height="1746"/></clipPath><clipPath id="clip11"><rect x="1490" y="804" width="2927" height="1746"/></clipPath><clipPath id="clip12"><rect x="1490" y="804" width="2927" height="1746"/></clipPath><clipPath id="clip13"><rect x="1490" y="804" width="2927" height="1746"/></clipPath><clipPath id="clip14"><rect x="1490" y="804" width="2927" height="1746"/></clipPath><clipPath id="clip15"><rect x="1490" y="804" width="2927" height="1746"/></clipPath><clipPath id="clip16"><rect x="1490" y="804" width="2927" height="1746"/></clipPath><clipPath id="clip17"><rect x="1490" y="804" width="2927" height="1746"/></clipPath><clipPath id="clip18"><rect x="1490" y="804" width="2927" height="1746"/></clipPath><clipPath id="clip19"><rect x="1490" y="804" width="2927" height="1746"/></clipPath><clipPath id="clip20"><rect x="1490" y="804" width="2927" height="1746"/></clipPath><clipPath id="clip21"><rect x="1490" y="804" width="2927" height="1746"/></clipPath><clipPath id="clip22"><rect x="1490" y="804" width="2927" height="1746"/></clipPath><clipPath id="clip23"><rect x="1490" y="804" width="2927" height="1746"/></clipPath><clipPath id="clip24"><rect x="1490" y="804" width="2927" height="1746"/></clipPath><clipPath id="clip25"><rect x="1490" y="804" width="2927" height="1746"/></clipPath><clipPath id="clip26"><rect x="1490" y="804" width="2927" height="1746"/></clipPath><clipPath id="clip27"><rect x="1490" y="804" width="2927" height="1746"/></clipPath><clipPath id="clip28"><rect x="1490" y="804" width="2927" height="1746"/></clipPath><clipPath id="clip29"><rect x="1490" y="804" width="2927" height="1746"/></clipPath><clipPath id="clip30"><rect x="1490" y="804" width="2927" height="1746"/></clipPath><clipPath id="clip31"><rect x="1490" y="804" width="2927" height="1746"/></clipPath><clipPath id="clip32"><rect x="1490" y="804" width="2927" height="1746"/></clipPath><clipPath id="clip33"><rect x="1490" y="804" width="2927" height="1746"/></clipPath><clipPath id="clip34"><rect x="1490" y="804" width="2927" height="1746"/></clipPath><clipPath id="clip35"><rect x="1490" y="804" width="2927" height="1746"/></clipPath><clipPath id="clip36"><rect x="1490" y="804" width="2927" height="1746"/></clipPath><clipPath id="clip37"><rect x="1490" y="804" width="2927" height="1746"/></clipPath><clipPath id="clip38"><rect x="1490" y="804" width="2927" height="1746"/></clipPath><clipPath id="clip39"><rect x="1490" y="804" width="2927" height="1746"/></clipPath><clipPath id="clip40"><rect x="1490" y="804" width="2927" height="1746"/></clipPath><clipPath id="clip41"><rect x="1490" y="804" width="2927" height="1746"/></clipPath><clipPath id="clip42"><rect x="1490" y="804" width="2927" height="1746"/></clipPath><clipPath id="clip43"><rect x="1490" y="804" width="2927" height="1746"/></clipPath><clipPath id="clip44"><rect x="1490" y="804" width="2927" height="1746"/></clipPath><clipPath id="clip45"><rect x="1490" y="804" width="2927" height="1746"/></clipPath><clipPath id="clip46"><rect x="1490" y="804" width="2927" height="1746"/></clipPath></defs><g clip-path="url(#clip0)" transform="translate(-1489 -803)"><rect x="1490" y="804" width="2927" height="1747" fill="#FFFFFF"/><g clip-path="url(#clip1)"><path d="M1748.5 1951.56 4172.5 1951.56M1748.5 1782.56 4172.5 1782.56M1748.5 1612.55 4172.5 1612.55M1748.5 1442.55 4172.5 1442.55M1748.5 1273.54 4172.5 1273.54M1748.5 1103.5 4172.5 1103.5" stroke="#D9D9D9" stroke-width="3.4375" stroke-linejoin="round" stroke-miterlimit="10" fill="none"/></g><g clip-path="url(#clip2)"><path d="M1789.06 1273.04 1951.06 1273.04 1951.06 2122 1789.06 2122ZM2032.07 1849.06 2193.07 1849.06 2193.07 2122 2032.07 2122ZM2274.07 1854.06 2435.08 1854.06 2435.08 2122 2274.07 2122ZM2516.08 1848.06 2678.09 1848.06 2678.09 2122 2516.08 2122ZM2759.09 1867.06 2920.1 1867.06 2920.1 2122 2759.09 2122ZM3001.1 1854.06 3162.1 1854.06 3162.1 2122 3001.1 2122ZM3243.11 1858.06 3405.11 1858.06 3405.11 2122 3243.11 2122ZM3486.11 1790.06 3647.12 1790.06 3647.12 2122 3486.11 2122ZM3728.12 1791.06 3889.13 1791.06 3889.13 2122 3728.12 2122ZM3970.13 1791.06 4132.14 1791.06 4132.14 2122 3970.13 2122Z" fill="#725BFF"/></g><g clip-path="url(#clip3)"><path d="M1748.5 2121.5 4172.5 2121.5" stroke="#D9D9D9" stroke-width="3.4375" stroke-linejoin="round" stroke-miterlimit="10" fill="none" fill-rule="evenodd"/></g><g clip-path="url(#clip4)"><path d="M1882.16 1302.87C1882.16 1309.23 1877.01 1314.37 1870.66 1314.37 1864.3 1314.37 1859.16 1309.23 1859.16 1302.87 1859.16 1296.52 1864.3 1291.37 1870.66 1291.37 1877.01 1291.37 1882.16 1296.52 1882.16 1302.87Z" fill="#400D67"/><path d="M2124.16 1303.87C2124.16 1310.23 2119.01 1315.37 2112.66 1315.37 2106.3 1315.37 2101.16 1310.23 2101.16 1303.87 2101.16 1297.52 2106.3 1292.37 2112.66 1292.37 2119.01 1292.37 2124.16 1297.52 2124.16 1303.87Z" fill="#400D67"/><path d="M2367.16 1303.87C2367.16 1310.23 2362.01 1315.37 2355.66 1315.37 2349.3 1315.37 2344.16 1310.23 2344.16 1303.87 2344.16 1297.52 2349.3 1292.37 2355.66 1292.37 2362.01 1292.37 2367.16 1297.52 2367.16 1303.87Z" fill="#400D67"/><path d="M2609.16 1295.87C2609.16 1302.23 2604.01 1307.37 2597.66 1307.37 2591.3 1307.37 2586.16 1302.23 2586.16 1295.87 2586.16 1289.52 2591.3 1284.37 2597.66 1284.37 2604.01 1284.37 2609.16 1289.52 2609.16 1295.87Z" fill="#400D67"/><path d="M2851.16 1316.87C2851.16 1323.23 2846.01 1328.37 2839.66 1328.37 2833.3 1328.37 2828.16 1323.23 2828.16 1316.87 2828.16 1310.52 2833.3 1305.37 2839.66 1305.37 2846.01 1305.37 2851.16 1310.52 2851.16 1316.87Z" fill="#400D67"/><path d="M3094.16 1310.87C3094.16 1317.23 3089.01 1322.37 3082.66 1322.37 3076.3 1322.37 3071.16 1317.23 3071.16 1310.87 3071.16 1304.52 3076.3 1299.37 3082.66 1299.37 3089.01 1299.37 3094.16 1304.52 3094.16 1310.87Z" fill="#400D67"/><path d="M3336.16 1316.87C3336.16 1323.23 3331.01 1328.37 3324.66 1328.37 3318.3 1328.37 3313.16 1323.23 3313.16 1316.87 3313.16 1310.52 3318.3 1305.37 3324.66 1305.37 3331.01 1305.37 3336.16 1310.52 3336.16 1316.87Z" fill="#400D67"/><path d="M3578.16 1302.87C3578.16 1309.23 3573.01 1314.37 3566.66 1314.37 3560.3 1314.37 3555.16 1309.23 3555.16 1302.87 3555.16 1296.52 3560.3 1291.37 3566.66 1291.37 3573.01 1291.37 3578.16 1296.52 3578.16 1302.87Z" fill="#400D67"/><path d="M3821.16 1300.87C3821.16 1307.23 3816.01 1312.37 3809.66 1312.37 3803.3 1312.37 3798.16 1307.23 3798.16 1300.87 3798.16 1294.52 3803.3 1289.37 3809.66 1289.37 3816.01 1289.37 3821.16 1294.52 3821.16 1300.87Z" fill="#400D67"/><path d="M4063.16 1301.87C4063.16 1308.23 4058.01 1313.37 4051.66 1313.37 4045.3 1313.37 4040.16 1308.23 4040.16 1301.87 4040.16 1295.52 4045.3 1290.37 4051.66 1290.37 4058.01 1290.37 4063.16 1295.52 4063.16 1301.87Z" fill="#400D67"/></g><g clip-path="url(#clip5)"><text font-family="Calibri,Calibri_MSFontService,sans-serif" font-weight="400" font-size="55" transform="matrix(1 0 0 1 4223.27 2137)">50</text></g><g clip-path="url(#clip6)"><text font-family="Calibri,Calibri_MSFontService,sans-serif" font-weight="400" font-size="55" transform="matrix(1 0 0 1 4223.27 1967)">55</text></g><g clip-path="url(#clip7)"><text font-family="Calibri,Calibri_MSFontService,sans-serif" font-weight="400" font-size="55" transform="matrix(1 0 0 1 4223.27 1798)">60</text></g><g clip-path="url(#clip8)"><text font-family="Calibri,Calibri_MSFontService,sans-serif" font-weight="400" font-size="55" transform="matrix(1 0 0 1 4223.27 1628)">65</text></g><g clip-path="url(#clip9)"><text font-family="Calibri,Calibri_MSFontService,sans-serif" font-weight="400" font-size="55" transform="matrix(1 0 0 1 4223.27 1458)">70</text></g><g clip-path="url(#clip10)"><text font-family="Calibri,Calibri_MSFontService,sans-serif" font-weight="400" font-size="55" transform="matrix(1 0 0 1 4223.27 1289)">75</text></g><g clip-path="url(#clip11)"><text font-family="Calibri,Calibri_MSFontService,sans-serif" font-weight="400" font-size="55" transform="matrix(1 0 0 1 4223.27 1119)">80</text></g><g clip-path="url(#clip12)"><text font-family="Calibri,Calibri_MSFontService,sans-serif" font-weight="400" font-size="55" transform="matrix(1 0 0 1 1670.1 2137)">0</text></g><g clip-path="url(#clip13)"><text font-family="Calibri,Calibri_MSFontService,sans-serif" font-weight="400" font-size="55" transform="matrix(1 0 0 1 1628.34 1967)">0.2</text></g><g clip-path="url(#clip14)"><text font-family="Calibri,Calibri_MSFontService,sans-serif" font-weight="400" font-size="55" transform="matrix(1 0 0 1 1628.34 1798)">0.4</text></g><g clip-path="url(#clip15)"><text font-family="Calibri,Calibri_MSFontService,sans-serif" font-weight="400" font-size="55" transform="matrix(1 0 0 1 1628.34 1628)">0.6</text></g><g clip-path="url(#clip16)"><text font-family="Calibri,Calibri_MSFontService,sans-serif" font-weight="400" font-size="55" transform="matrix(1 0 0 1 1628.34 1458)">0.8</text></g><g clip-path="url(#clip17)"><text font-family="Calibri,Calibri_MSFontService,sans-serif" font-weight="400" font-size="55" transform="matrix(1 0 0 1 1670.1 1289)">1</text></g><g clip-path="url(#clip18)"><text font-family="Calibri,Calibri_MSFontService,sans-serif" font-weight="400" font-size="55" transform="matrix(1 0 0 1 1628.34 1119)">1.2</text></g><g clip-path="url(#clip19)"><text font-family="Calibri,Calibri_MSFontService,sans-serif" font-weight="400" font-size="55" transform="matrix(1 0 0 1 1776.83 2209)">Baseline</text></g><g clip-path="url(#clip20)"><text font-family="Calibri,Calibri_MSFontService,sans-serif" font-weight="400" font-size="55" transform="matrix(1 0 0 1 2021.97 2209)">10 iters,</text></g><g clip-path="url(#clip21)"><text font-family="Calibri,Calibri_MSFontService,sans-serif" font-weight="400" font-size="55" transform="matrix(1 0 0 1 2072.35 2276)">k=1</text></g><g clip-path="url(#clip22)"><text font-family="Calibri,Calibri_MSFontService,sans-serif" font-weight="400" font-size="55" transform="matrix(1 0 0 1 2264.29 2209)">10 iters,</text></g><g clip-path="url(#clip23)"><text font-family="Calibri,Calibri_MSFontService,sans-serif" font-weight="400" font-size="55" transform="matrix(1 0 0 1 2300.74 2276)">k=10</text></g><g clip-path="url(#clip24)"><text font-family="Calibri,Calibri_MSFontService,sans-serif" font-weight="400" font-size="55" transform="matrix(1 0 0 1 2506.62 2209)">10 iters,</text></g><g clip-path="url(#clip25)"><text font-family="Calibri,Calibri_MSFontService,sans-serif" font-weight="400" font-size="55" transform="matrix(1 0 0 1 2543.07 2276)">k=20</text></g><g clip-path="url(#clip26)"><text font-family="Calibri,Calibri_MSFontService,sans-serif" font-weight="400" font-size="55" transform="matrix(1 0 0 1 2748.94 2209)">20 iters,</text></g><g clip-path="url(#clip27)"><text font-family="Calibri,Calibri_MSFontService,sans-serif" font-weight="400" font-size="55" transform="matrix(1 0 0 1 2799.33 2276)">k=1</text></g><g clip-path="url(#clip28)"><text font-family="Calibri,Calibri_MSFontService,sans-serif" font-weight="400" font-size="55" transform="matrix(1 0 0 1 2991.27 2209)">20 iters,</text></g><g clip-path="url(#clip29)"><text font-family="Calibri,Calibri_MSFontService,sans-serif" font-weight="400" font-size="55" transform="matrix(1 0 0 1 3027.72 2276)">k=10</text></g><g clip-path="url(#clip30)"><text font-family="Calibri,Calibri_MSFontService,sans-serif" font-weight="400" font-size="55" transform="matrix(1 0 0 1 3233.59 2209)">20 iters,</text></g><g clip-path="url(#clip31)"><text font-family="Calibri,Calibri_MSFontService,sans-serif" font-weight="400" font-size="55" transform="matrix(1 0 0 1 3270.04 2276)">k=20</text></g><g clip-path="url(#clip32)"><text font-family="Calibri,Calibri_MSFontService,sans-serif" font-weight="400" font-size="55" transform="matrix(1 0 0 1 3475.92 2209)">50 iters,</text></g><g clip-path="url(#clip33)"><text font-family="Calibri,Calibri_MSFontService,sans-serif" font-weight="400" font-size="55" transform="matrix(1 0 0 1 3526.3 2276)">k=1</text></g><g clip-path="url(#clip34)"><text font-family="Calibri,Calibri_MSFontService,sans-serif" font-weight="400" font-size="55" transform="matrix(1 0 0 1 3718.24 2209)">50 iters,</text></g><g clip-path="url(#clip35)"><text font-family="Calibri,Calibri_MSFontService,sans-serif" font-weight="400" font-size="55" transform="matrix(1 0 0 1 3754.69 2276)">k=10</text></g><g clip-path="url(#clip36)"><text font-family="Calibri,Calibri_MSFontService,sans-serif" font-weight="400" font-size="55" transform="matrix(1 0 0 1 3960.57 2209)">50 iters,</text></g><g clip-path="url(#clip37)"><text font-family="Calibri,Calibri_MSFontService,sans-serif" font-weight="400" font-size="55" transform="matrix(1 0 0 1 3997.02 2276)">k=20</text></g><g clip-path="url(#clip38)"><text fill="#595959" font-family="Calibri,Calibri_MSFontService,sans-serif" font-weight="400" font-size="55" transform="matrix(6.12323e-17 -1 1 6.12323e-17 4344.75 1713)">Accuracy</text></g><g clip-path="url(#clip39)"><text font-family="Calibri,Calibri_MSFontService,sans-serif" font-weight="400" font-size="55" transform="matrix(6.12323e-17 -1 1 6.12323e-17 1599.45 1893)">Footprint versus baseline</text></g><g clip-path="url(#clip40)"><text font-family="Calibri,Calibri_MSFontService,sans-serif" font-weight="400" font-size="55" transform="matrix(1 0 0 1 2697.13 2357)">Hyperparameter Values</text></g><g clip-path="url(#clip41)"><text font-family="Calibri,Calibri_MSFontService,sans-serif" font-weight="400" font-size="83" transform="matrix(1 0 0 1 2010.62 918)">Footprint and Accuracy of Different Simulated Annealing </text></g><g clip-path="url(#clip42)"><text font-family="Calibri,Calibri_MSFontService,sans-serif" font-weight="400" font-size="83" transform="matrix(1 0 0 1 2392.98 1018)">Hyperparameters Versus Baseline</text></g><g clip-path="url(#clip43)"><rect x="2689" y="2461" width="30" height="30.0002" fill="#725BFF"/></g><g clip-path="url(#clip44)"><text font-family="Calibri,Calibri_MSFontService,sans-serif" font-weight="400" font-size="55" transform="matrix(1 0 0 1 2732.33 2492)">Footprint</text></g><g clip-path="url(#clip45)"><path d="M3021 2476.5C3021 2482.85 3015.85 2488 3009.5 2488 3003.15 2488 2998 2482.85 2998 2476.5 2998 2470.15 3003.15 2465 3009.5 2465 3015.85 2465 3021 2470.15 3021 2476.5Z" fill="#400D67"/></g><g clip-path="url(#clip46)"><text font-family="Calibri,Calibri_MSFontService,sans-serif" font-weight="400" font-size="55" transform="matrix(1 0 0 1 3037.95 2492)">Accuracy</text></g><rect x="1490.5" y="804.5" width="2927" height="1747" stroke="#D9D9D9" stroke-width="3.4375" stroke-linejoin="round" stroke-miterlimit="10" fill="none"/></g></svg>