<svg width="3119" height="1884" xmlns="http://www.w3.org/2000/svg" xmlns:xlink="http://www.w3.org/1999/xlink" xml:space="preserve" overflow="hidden"><defs><clipPath id="clip0"><rect x="1819" y="803" width="3119" height="1884"/></clipPath><clipPath id="clip1"><rect x="1820" y="804" width="3116" height="1880"/></clipPath><clipPath id="clip2"><rect x="2078" y="1103" width="2616" height="1089"/></clipPath><clipPath id="clip3"><rect x="1820" y="804" width="3116" height="1880"/></clipPath><clipPath id="clip4"><rect x="1820" y="804" width="3116" height="1880"/></clipPath><clipPath id="clip5"><rect x="1820" y="804" width="3116" height="1880"/></clipPath><clipPath id="clip6"><rect x="1820" y="804" width="3116" height="1880"/></clipPath><clipPath id="clip7"><rect x="1820" y="804" width="3116" height="1880"/></clipPath><clipPath id="clip8"><rect x="1820" y="804" width="3116" height="1880"/></clipPath><clipPath id="clip9"><rect x="1820" y="804" width="3116" height="1880"/></clipPath><clipPath id="clip10"><rect x="1820" y="804" width="3116" height="1880"/></clipPath><clipPath id="clip11"><rect x="1820" y="804" width="3116" height="1880"/></clipPath><clipPath id="clip12"><rect x="1820" y="804" width="3116" height="1880"/></clipPath><clipPath id="clip13"><rect x="1820" y="804" width="3116" height="1880"/></clipPath><clipPath id="clip14"><rect x="1820" y="804" width="3116" height="1880"/></clipPath><clipPath id="clip15"><rect x="1820" y="804" width="3116" height="1880"/></clipPath><clipPath id="clip16"><rect x="1820" y="804" width="3116" height="1880"/></clipPath><clipPath id="clip17"><rect x="1820" y="804" width="3116" height="1880"/></clipPath><clipPath id="clip18"><rect x="1820" y="804" width="3116" height="1880"/></clipPath><clipPath id="clip19"><rect x="1820" y="804" width="3116" height="1880"/></clipPath><clipPath id="clip20"><rect x="1820" y="804" width="3116" height="1880"/></clipPath><clipPath id="clip21"><rect x="1820" y="804" width="3116" height="1880"/></clipPath><clipPath id="clip22"><rect x="1820" y="804" width="3116" height="1880"/></clipPath><clipPath id="clip23"><rect x="1820" y="804" width="3116" height="1880"/></clipPath><clipPath id="clip24"><rect x="1820" y="804" width="3116" height="1880"/></clipPath><clipPath id="clip25"><rect x="1820" y="804" width="3116" height="1880"/></clipPath><clipPath id="clip26"><rect x="1820" y="804" width="3116" height="1880"/></clipPath><clipPath id="clip27"><rect x="1820" y="804" width="3116" height="1880"/></clipPath><clipPath id="clip28"><rect x="1820" y="804" width="3116" height="1880"/></clipPath><clipPath id="clip29"><rect x="1820" y="804" width="3116" height="1880"/></clipPath><clipPath id="clip30"><rect x="1820" y="804" width="3116" height="1880"/></clipPath><clipPath id="clip31"><rect x="1820" y="804" width="3116" height="1880"/></clipPath><clipPath id="clip32"><rect x="1820" y="804" width="3116" height="1880"/></clipPath><clipPath id="clip33"><rect x="1820" y="804" width="3116" height="1880"/></clipPath><clipPath id="clip34"><rect x="1820" y="804" width="3116" height="1880"/></clipPath><clipPath id="clip35"><rect x="1820" y="804" width="3116" height="1880"/></clipPath><clipPath id="clip36"><rect x="1820" y="804" width="3116" height="1880"/></clipPath><clipPath id="clip37"><rect x="1820" y="804" width="3116" height="1880"/></clipPath><clipPath id="clip38"><rect x="1820" y="804" width="3116" height="1880"/></clipPath><clipPath id="clip39"><rect x="1820" y="804" width="3116" height="1880"/></clipPath><clipPath id="clip40"><rect x="1820" y="804" width="3116" height="1880"/></clipPath><clipPath id="clip41"><rect x="1820" y="804" width="3116" height="1880"/></clipPath><clipPath id="clip42"><rect x="1820" y="804" width="3116" height="1880"/></clipPath><clipPath id="clip43"><rect x="1820" y="804" width="3116" height="1880"/></clipPath><clipPath id="clip44"><rect x="1820" y="804" width="3116" height="1880"/></clipPath><clipPath id="clip45"><rect x="1820" y="804" width="3116" height="1880"/></clipPath><clipPath id="clip46"><rect x="1820" y="804" width="3116" height="1880"/></clipPath><clipPath id="clip47"><rect x="1820" y="804" width="3116" height="1880"/></clipPath><clipPath id="clip48"><rect x="1820" y="804" width="3116" height="1880"/></clipPath><clipPath id="clip49"><rect x="1820" y="804" width="3116" height="1880"/></clipPath><clipPath id="clip50"><rect x="1820" y="804" width="3116" height="1880"/></clipPath><clipPath id="clip51"><rect x="1820" y="804" width="3116" height="1880"/></clipPath><clipPath id="clip52"><rect x="1820" y="804" width="3116" height="1880"/></clipPath><clipPath id="clip53"><rect x="1820" y="804" width="3116" height="1880"/></clipPath><clipPath id="clip54"><rect x="1820" y="804" width="3116" height="1880"/></clipPath><clipPath id="clip55"><rect x="1820" y="804" width="3116" height="1880"/></clipPath></defs><g clip-path="url(#clip0)" transform="translate(-1819 -803)"><rect x="1820" y="804" width="3116" height="1881" fill="#FFFFFF"/><g clip-path="url(#clip1)"><path d="M2078.5 2007.57 4691.5 2007.57M2078.5 1826.56 4691.5 1826.56M2078.5 1646.55 4691.5 1646.55M2078.5 1465.55 4691.5 1465.55M2078.5 1284.54 4691.5 1284.54M2078.5 1103.5 4691.5 1103.5" stroke="#D9D9D9" stroke-width="3.4375" stroke-linejoin="round" stroke-miterlimit="10" fill="none"/></g><g clip-path="url(#clip2)"><path d="M2122.07 1284.04 2297.08 1284.04 2297.08 2189 2122.07 2189ZM2384.08 1851.06 2558.08 1851.06 2558.08 2189 2384.08 2189ZM2645.09 1851.06 2819.09 1851.06 2819.09 2189 2645.09 2189ZM2906.1 1850.06 3080.1 1850.06 3080.1 2189 2906.1 2189ZM3167.1 1851.06 3341.11 1851.06 3341.11 2189 3167.1 2189ZM3429.11 1847.06 3603.12 1847.06 3603.12 2189 3429.11 2189ZM3690.12 1840.06 3864.13 1840.06 3864.13 2189 3690.12 2189ZM3951.13 1849.06 4125.14 1849.06 4125.14 2189 3951.13 2189ZM4212.14 1833.06 4386.14 1833.06 4386.14 2189 4212.14 2189ZM4473.15 1828.06 4648.15 1828.06 4648.15 2189 4473.15 2189Z" fill="#725BFF"/></g><g clip-path="url(#clip3)"><path d="M2078.5 2188.5 4691.5 2188.5" stroke="#D9D9D9" stroke-width="3.4375" stroke-linejoin="round" stroke-miterlimit="10" fill="none" fill-rule="evenodd"/></g><g clip-path="url(#clip4)"><path d="M2222.16 1316.87C2222.16 1323.23 2217.01 1328.37 2210.66 1328.37 2204.3 1328.37 2199.16 1323.23 2199.16 1316.87 2199.16 1310.52 2204.3 1305.37 2210.66 1305.37 2217.01 1305.37 2222.16 1310.52 2222.16 1316.87Z" fill="#400D67"/><path d="M2483.16 1319.87C2483.16 1326.23 2478.01 1331.37 2471.66 1331.37 2465.3 1331.37 2460.16 1326.23 2460.16 1319.87 2460.16 1313.52 2465.3 1308.37 2471.66 1308.37 2478.01 1308.37 2483.16 1313.52 2483.16 1319.87Z" fill="#400D67"/><path d="M2744.16 1318.87C2744.16 1325.23 2739.01 1330.37 2732.66 1330.37 2726.3 1330.37 2721.16 1325.23 2721.16 1318.87 2721.16 1312.52 2726.3 1307.37 2732.66 1307.37 2739.01 1307.37 2744.16 1312.52 2744.16 1318.87Z" fill="#400D67"/><path d="M3005.16 1318.87C3005.16 1325.23 3000.01 1330.37 2993.66 1330.37 2987.3 1330.37 2982.16 1325.23 2982.16 1318.87 2982.16 1312.52 2987.3 1307.37 2993.66 1307.37 3000.01 1307.37 3005.16 1312.52 3005.16 1318.87Z" fill="#400D67"/><path d="M3267.16 1319.87C3267.16 1326.23 3262.01 1331.37 3255.66 1331.37 3249.3 1331.37 3244.16 1326.23 3244.16 1319.87 3244.16 1313.52 3249.3 1308.37 3255.66 1308.37 3262.01 1308.37 3267.16 1313.52 3267.16 1319.87Z" fill="#400D67"/><path d="M3528.16 1318.87C3528.16 1325.23 3523.01 1330.37 3516.66 1330.37 3510.3 1330.37 3505.16 1325.23 3505.16 1318.87 3505.16 1312.52 3510.3 1307.37 3516.66 1307.37 3523.01 1307.37 3528.16 1312.52 3528.16 1318.87Z" fill="#400D67"/><path d="M3789.16 1318.87C3789.16 1325.23 3784.01 1330.37 3777.66 1330.37 3771.3 1330.37 3766.16 1325.23 3766.16 1318.87 3766.16 1312.52 3771.3 1307.37 3777.66 1307.37 3784.01 1307.37 3789.16 1312.52 3789.16 1318.87Z" fill="#400D67"/><path d="M4050.16 1319.87C4050.16 1326.23 4045.01 1331.37 4038.66 1331.37 4032.3 1331.37 4027.16 1326.23 4027.16 1319.87 4027.16 1313.52 4032.3 1308.37 4038.66 1308.37 4045.01 1308.37 4050.16 1313.52 4050.16 1319.87Z" fill="#400D67"/><path d="M4311.15 1312.87C4311.15 1319.23 4306.01 1324.37 4299.66 1324.37 4293.3 1324.37 4288.16 1319.23 4288.16 1312.87 4288.16 1306.52 4293.3 1301.37 4299.66 1301.37 4306.01 1301.37 4311.15 1306.52 4311.15 1312.87Z" fill="#400D67"/><path d="M4573.15 1313.87C4573.15 1320.23 4568.01 1325.37 4561.66 1325.37 4555.3 1325.37 4550.16 1320.23 4550.16 1313.87 4550.16 1307.52 4555.3 1302.37 4561.66 1302.37 4568.01 1302.37 4573.15 1307.52 4573.15 1313.87Z" fill="#400D67"/></g><g clip-path="url(#clip5)"><text font-family="Calibri,Calibri_MSFontService,sans-serif" font-weight="400" font-size="55" transform="matrix(1 0 0 1 4742.33 2204)">50</text></g><g clip-path="url(#clip6)"><text font-family="Calibri,Calibri_MSFontService,sans-serif" font-weight="400" font-size="55" transform="matrix(1 0 0 1 4742.33 2023)">55</text></g><g clip-path="url(#clip7)"><text font-family="Calibri,Calibri_MSFontService,sans-serif" font-weight="400" font-size="55" transform="matrix(1 0 0 1 4742.33 1842)">60</text></g><g clip-path="url(#clip8)"><text font-family="Calibri,Calibri_MSFontService,sans-serif" font-weight="400" font-size="55" transform="matrix(1 0 0 1 4742.33 1662)">65</text></g><g clip-path="url(#clip9)"><text font-family="Calibri,Calibri_MSFontService,sans-serif" font-weight="400" font-size="55" transform="matrix(1 0 0 1 4742.33 1481)">70</text></g><g clip-path="url(#clip10)"><text font-family="Calibri,Calibri_MSFontService,sans-serif" font-weight="400" font-size="55" transform="matrix(1 0 0 1 4742.33 1300)">75</text></g><g clip-path="url(#clip11)"><text font-family="Calibri,Calibri_MSFontService,sans-serif" font-weight="400" font-size="55" transform="matrix(1 0 0 1 4742.33 1119)">80</text></g><g clip-path="url(#clip12)"><text font-family="Calibri,Calibri_MSFontService,sans-serif" font-weight="400" font-size="55" transform="matrix(1 0 0 1 2000.1 2204)">0</text></g><g clip-path="url(#clip13)"><text font-family="Calibri,Calibri_MSFontService,sans-serif" font-weight="400" font-size="55" transform="matrix(1 0 0 1 1958.34 2023)">0.2</text></g><g clip-path="url(#clip14)"><text font-family="Calibri,Calibri_MSFontService,sans-serif" font-weight="400" font-size="55" transform="matrix(1 0 0 1 1958.34 1842)">0.4</text></g><g clip-path="url(#clip15)"><text font-family="Calibri,Calibri_MSFontService,sans-serif" font-weight="400" font-size="55" transform="matrix(1 0 0 1 1958.34 1662)">0.6</text></g><g clip-path="url(#clip16)"><text font-family="Calibri,Calibri_MSFontService,sans-serif" font-weight="400" font-size="55" transform="matrix(1 0 0 1 1958.34 1481)">0.8</text></g><g clip-path="url(#clip17)"><text font-family="Calibri,Calibri_MSFontService,sans-serif" font-weight="400" font-size="55" transform="matrix(1 0 0 1 2000.1 1300)">1</text></g><g clip-path="url(#clip18)"><text font-family="Calibri,Calibri_MSFontService,sans-serif" font-weight="400" font-size="55" transform="matrix(1 0 0 1 1958.34 1119)">1.2</text></g><g clip-path="url(#clip19)"><text font-family="Calibri,Calibri_MSFontService,sans-serif" font-weight="400" font-size="55" transform="matrix(1 0 0 1 2116.28 2276)">Baseline</text></g><g clip-path="url(#clip20)"><text font-family="Calibri,Calibri_MSFontService,sans-serif" font-weight="400" font-size="55" transform="matrix(1 0 0 1 2380.33 2276)">10 iters,</text></g><g clip-path="url(#clip21)"><text font-family="Calibri,Calibri_MSFontService,sans-serif" font-weight="400" font-size="55" transform="matrix(1 0 0 1 2369.84 2343)">mut=0.2,</text></g><g clip-path="url(#clip22)"><text font-family="Calibri,Calibri_MSFontService,sans-serif" font-weight="400" font-size="55" transform="matrix(1 0 0 1 2365.09 2410)">cross=0.2</text></g><g clip-path="url(#clip23)"><text font-family="Calibri,Calibri_MSFontService,sans-serif" font-weight="400" font-size="55" transform="matrix(1 0 0 1 2641.56 2276)">10 iters,</text></g><g clip-path="url(#clip24)"><text font-family="Calibri,Calibri_MSFontService,sans-serif" font-weight="400" font-size="55" transform="matrix(1 0 0 1 2631.07 2343)">mut=0.6,</text></g><g clip-path="url(#clip25)"><text font-family="Calibri,Calibri_MSFontService,sans-serif" font-weight="400" font-size="55" transform="matrix(1 0 0 1 2626.32 2410)">cross=0.2</text></g><g clip-path="url(#clip26)"><text font-family="Calibri,Calibri_MSFontService,sans-serif" font-weight="400" font-size="55" transform="matrix(1 0 0 1 2902.79 2276)">10 iters,</text></g><g clip-path="url(#clip27)"><text font-family="Calibri,Calibri_MSFontService,sans-serif" font-weight="400" font-size="55" transform="matrix(1 0 0 1 2892.31 2343)">mut=0.6,</text></g><g clip-path="url(#clip28)"><text font-family="Calibri,Calibri_MSFontService,sans-serif" font-weight="400" font-size="55" transform="matrix(1 0 0 1 2887.55 2410)">cross=0.6</text></g><g clip-path="url(#clip29)"><text font-family="Calibri,Calibri_MSFontService,sans-serif" font-weight="400" font-size="55" transform="matrix(1 0 0 1 3164.02 2276)">20 iters,</text></g><g clip-path="url(#clip30)"><text font-family="Calibri,Calibri_MSFontService,sans-serif" font-weight="400" font-size="55" transform="matrix(1 0 0 1 3153.54 2343)">mut=0.2,</text></g><g clip-path="url(#clip31)"><text font-family="Calibri,Calibri_MSFontService,sans-serif" font-weight="400" font-size="55" transform="matrix(1 0 0 1 3148.78 2410)">cross=0.2</text></g><g clip-path="url(#clip32)"><text font-family="Calibri,Calibri_MSFontService,sans-serif" font-weight="400" font-size="55" transform="matrix(1 0 0 1 3425.25 2276)">20 iters,</text></g><g clip-path="url(#clip33)"><text font-family="Calibri,Calibri_MSFontService,sans-serif" font-weight="400" font-size="55" transform="matrix(1 0 0 1 3414.77 2343)">mut=0.6,</text></g><g clip-path="url(#clip34)"><text font-family="Calibri,Calibri_MSFontService,sans-serif" font-weight="400" font-size="55" transform="matrix(1 0 0 1 3410.01 2410)">cross=0.2</text></g><g clip-path="url(#clip35)"><text font-family="Calibri,Calibri_MSFontService,sans-serif" font-weight="400" font-size="55" transform="matrix(1 0 0 1 3686.48 2276)">20 iters,</text></g><g clip-path="url(#clip36)"><text font-family="Calibri,Calibri_MSFontService,sans-serif" font-weight="400" font-size="55" transform="matrix(1 0 0 1 3676 2343)">mut=0.6,</text></g><g clip-path="url(#clip37)"><text font-family="Calibri,Calibri_MSFontService,sans-serif" font-weight="400" font-size="55" transform="matrix(1 0 0 1 3671.24 2410)">cross=0.6</text></g><g clip-path="url(#clip38)"><text font-family="Calibri,Calibri_MSFontService,sans-serif" font-weight="400" font-size="55" transform="matrix(1 0 0 1 3947.71 2276)">50 iters,</text></g><g clip-path="url(#clip39)"><text font-family="Calibri,Calibri_MSFontService,sans-serif" font-weight="400" font-size="55" transform="matrix(1 0 0 1 3937.23 2343)">mut=0.2,</text></g><g clip-path="url(#clip40)"><text font-family="Calibri,Calibri_MSFontService,sans-serif" font-weight="400" font-size="55" transform="matrix(1 0 0 1 3932.47 2410)">cross=0.2</text></g><g clip-path="url(#clip41)"><text font-family="Calibri,Calibri_MSFontService,sans-serif" font-weight="400" font-size="55" transform="matrix(1 0 0 1 4208.94 2276)">50 iters,</text></g><g clip-path="url(#clip42)"><text font-family="Calibri,Calibri_MSFontService,sans-serif" font-weight="400" font-size="55" transform="matrix(1 0 0 1 4198.46 2343)">mut=0.6,</text></g><g clip-path="url(#clip43)"><text font-family="Calibri,Calibri_MSFontService,sans-serif" font-weight="400" font-size="55" transform="matrix(1 0 0 1 4193.71 2410)">cross=0.2</text></g><g clip-path="url(#clip44)"><text font-family="Calibri,Calibri_MSFontService,sans-serif" font-weight="400" font-size="55" transform="matrix(1 0 0 1 4470.18 2276)">50 iters,</text></g><g clip-path="url(#clip45)"><text font-family="Calibri,Calibri_MSFontService,sans-serif" font-weight="400" font-size="55" transform="matrix(1 0 0 1 4459.69 2343)">mut=0.6,</text></g><g clip-path="url(#clip46)"><text font-family="Calibri,Calibri_MSFontService,sans-serif" font-weight="400" font-size="55" transform="matrix(1 0 0 1 4454.94 2410)">cross=0.6</text></g><g clip-path="url(#clip47)"><text font-family="Calibri,Calibri_MSFontService,sans-serif" font-weight="400" font-size="55" transform="matrix(6.12323e-17 -1 1 6.12323e-17 4863.81 1746)">Accuracy</text></g><g clip-path="url(#clip48)"><text font-family="Calibri,Calibri_MSFontService,sans-serif" font-weight="400" font-size="55" transform="matrix(6.12323e-17 -1 1 6.12323e-17 1929.45 1927)">Footprint versus baseline</text></g><g clip-path="url(#clip49)"><text font-family="Calibri,Calibri_MSFontService,sans-serif" font-weight="400" font-size="55" transform="matrix(1 0 0 1 3121.66 2491)">Hyperparameter Values</text></g><g clip-path="url(#clip50)"><text font-family="Calibri,Calibri_MSFontService,sans-serif" font-weight="400" font-size="83" transform="matrix(1 0 0 1 2172.42 918)">Footprint and Accuracy of Different Genetic Algorithm Hyperparameters </text></g><g clip-path="url(#clip51)"><text font-family="Calibri,Calibri_MSFontService,sans-serif" font-weight="400" font-size="83" transform="matrix(1 0 0 1 3119.43 1018)">Versus Baseline</text></g><g clip-path="url(#clip52)"><rect x="3113" y="2595" width="30" height="30" fill="#725BFF"/></g><g clip-path="url(#clip53)"><text font-family="Calibri,Calibri_MSFontService,sans-serif" font-weight="400" font-size="55" transform="matrix(1 0 0 1 3156.86 2626)">Footprint</text></g><g clip-path="url(#clip54)"><path d="M3445 2610.5C3445 2616.85 3439.85 2622 3433.5 2622 3427.15 2622 3422 2616.85 3422 2610.5 3422 2604.15 3427.15 2599 3433.5 2599 3439.85 2599 3445 2604.15 3445 2610.5Z" fill="#400D67"/></g><g clip-path="url(#clip55)"><text font-family="Calibri,Calibri_MSFontService,sans-serif" font-weight="400" font-size="55" transform="matrix(1 0 0 1 3462.48 2626)">Accuracy</text></g><rect x="1820.5" y="804.5" width="3116" height="1881" stroke="#D9D9D9" stroke-width="3.4375" stroke-linejoin="round" stroke-miterlimit="10" fill="none"/></g></svg>