<svg width="4451" height="1137" xmlns="http://www.w3.org/2000/svg" xmlns:xlink="http://www.w3.org/1999/xlink" xml:space="preserve" overflow="hidden"><defs><clipPath id="clip0"><rect x="2980" y="1635" width="4451" height="1137"/></clipPath><clipPath id="clip1"><rect x="2980" y="1636" width="4449" height="1134"/></clipPath><clipPath id="clip2"><rect x="3144" y="1834" width="4238" height="584"/></clipPath><clipPath id="clip3"><rect x="3144" y="1834" width="4238" height="584"/></clipPath><clipPath id="clip4"><rect x="2980" y="1636" width="4449" height="1134"/></clipPath><clipPath id="clip5"><rect x="2980" y="1636" width="4449" height="1134"/></clipPath><clipPath id="clip6"><rect x="2980" y="1636" width="4449" height="1134"/></clipPath><clipPath id="clip7"><rect x="2980" y="1636" width="4449" height="1134"/></clipPath><clipPath id="clip8"><rect x="2980" y="1636" width="4449" height="1134"/></clipPath><clipPath id="clip9"><rect x="2980" y="1636" width="4449" height="1134"/></clipPath><clipPath id="clip10"><rect x="2980" y="1636" width="4449" height="1134"/></clipPath><clipPath id="clip11"><rect x="2980" y="1636" width="4449" height="1134"/></clipPath><clipPath id="clip12"><rect x="2980" y="1636" width="4449" height="1134"/></clipPath><clipPath id="clip13"><rect x="2980" y="1636" width="4449" height="1134"/></clipPath><clipPath id="clip14"><rect x="2980" y="1636" width="4449" height="1134"/></clipPath><clipPath id="clip15"><rect x="2980" y="1636" width="4449" height="1134"/></clipPath><clipPath id="clip16"><rect x="2980" y="1636" width="4449" height="1134"/></clipPath><clipPath id="clip17"><rect x="2980" y="1636" width="4449" height="1134"/></clipPath><clipPath id="clip18"><rect x="2980" y="1636" width="4449" height="1134"/></clipPath><clipPath id="clip19"><rect x="2980" y="1636" width="4449" height="1134"/></clipPath><clipPath id="clip20"><rect x="2980" y="1636" width="4449" height="1134"/></clipPath><clipPath id="clip21"><rect x="2980" y="1636" width="4449" height="1134"/></clipPath><clipPath id="clip22"><rect x="2980" y="1636" width="4449" height="1134"/></clipPath><clipPath id="clip23"><rect x="2980" y="1636" width="4449" height="1134"/></clipPath><clipPath id="clip24"><rect x="2980" y="1636" width="4449" height="1134"/></clipPath><clipPath id="clip25"><rect x="2980" y="1636" width="4449" height="1134"/></clipPath><clipPath id="clip26"><rect x="2980" y="1636" width="4449" height="1134"/></clipPath><clipPath id="clip27"><rect x="2980" y="1636" width="4449" height="1134"/></clipPath><clipPath id="clip28"><rect x="2980" y="1636" width="4449" height="1134"/></clipPath><clipPath id="clip29"><rect x="2980" y="1636" width="4449" height="1134"/></clipPath><clipPath id="clip30"><rect x="2980" y="1636" width="4449" height="1134"/></clipPath><clipPath id="clip31"><rect x="2980" y="1636" width="4449" height="1134"/></clipPath><clipPath id="clip32"><rect x="2980" y="1636" width="4449" height="1134"/></clipPath><clipPath id="clip33"><rect x="2980" y="1636" width="4449" height="1134"/></clipPath><clipPath id="clip34"><rect x="2980" y="1636" width="4449" height="1134"/></clipPath><clipPath id="clip35"><rect x="2980" y="1636" width="4449" height="1134"/></clipPath><clipPath id="clip36"><rect x="2980" y="1636" width="4449" height="1134"/></clipPath><clipPath id="clip37"><rect x="2980" y="1636" width="4449" height="1134"/></clipPath><clipPath id="clip38"><rect x="2980" y="1636" width="4449" height="1134"/></clipPath><clipPath id="clip39"><rect x="2980" y="1636" width="4449" height="1134"/></clipPath><clipPath id="clip40"><rect x="2980" y="1636" width="4449" height="1134"/></clipPath><clipPath id="clip41"><rect x="2980" y="1636" width="4449" height="1134"/></clipPath></defs><g clip-path="url(#clip0)" transform="translate(-2980 -1635)"><rect x="2981" y="1636" width="4448" height="1134" fill="#FFFFFF"/><g clip-path="url(#clip1)"><path d="M3144.5 2298.58 7378.5 2298.58M3144.5 2182.57 7378.5 2182.57M3144.5 2066.57 7378.5 2066.57M3144.5 1950.56 7378.5 1950.56M3144.5 1834.5 7378.5 1834.5" stroke="#D9D9D9" stroke-width="3.4375" stroke-linejoin="round" stroke-miterlimit="10" fill="none"/></g><g clip-path="url(#clip2)"><path d="M3210.11 1985.07 3269.11 1985.07 3269.11 2415 3210.11 2415ZM3474.11 1985.07 3534.12 1985.07 3534.12 2415 3474.11 2415ZM3739.12 1984.07 3798.12 1984.07 3798.12 2415 3739.12 2415ZM4004.13 1984.07 4063.13 1984.07 4063.13 2415 4004.13 2415ZM4268.14 1985.07 4328.14 1985.07 4328.14 2415 4268.14 2415ZM4533.15 1986.07 4592.15 1986.07 4592.15 2415 4533.15 2415ZM4797.16 1985.07 4857.16 1985.07 4857.16 2415 4797.16 2415ZM5062.17 1986.07 5121.17 1986.07 5121.17 2415 5062.17 2415ZM5327.17 2003.07 5386.18 2003.07 5386.18 2415 5327.17 2415ZM5591.18 2002.07 5650.19 2002.07 5650.19 2415 5591.18 2415ZM5856.19 2002.07 5915.19 2002.07 5915.19 2415 5856.19 2415ZM6120.2 2002.07 6180.2 2002.07 6180.2 2415 6120.2 2415ZM6385.21 1966.06 6444.21 1966.06 6444.21 2415 6385.21 2415ZM6650.22 1967.06 6709.22 1967.06 6709.22 2415 6650.22 2415ZM6914.23 1967.06 6973.23 1967.06 6973.23 2415 6914.23 2415ZM7179.24 1967.06 7238.24 1967.06 7238.24 2415 7179.24 2415Z" fill="#725BFF"/></g><g clip-path="url(#clip3)"><path d="M3285.11 1879.06 3344.11 1879.06 3344.11 2415 3285.11 2415ZM3550.12 1878.06 3609.12 1878.06 3609.12 2415 3550.12 2415ZM3814.13 1878.06 3874.13 1878.06 3874.13 2415 3814.13 2415ZM4079.13 1878.06 4138.14 1878.06 4138.14 2415 4079.13 2415ZM4344.14 1876.06 4403.14 1876.06 4403.14 2415 4344.14 2415ZM4608.15 1875.06 4667.15 1875.06 4667.15 2415 4608.15 2415ZM4873.16 1875.06 4932.16 1875.06 4932.16 2415 4873.16 2415ZM5137.17 1876.06 5197.17 1876.06 5197.17 2415 5137.17 2415ZM5402.18 1877.06 5461.18 1877.06 5461.18 2415 5402.18 2415ZM5667.19 1877.06 5726.19 1877.06 5726.19 2415 5667.19 2415ZM5931.19 1877.06 5990.2 1877.06 5990.2 2415 5931.19 2415ZM6196.2 1877.06 6255.21 1877.06 6255.21 2415 6196.2 2415ZM6460.21 1869.06 6520.21 1869.06 6520.21 2415 6460.21 2415ZM6725.22 1868.06 6784.22 1868.06 6784.22 2415 6725.22 2415ZM6989.23 1868.06 7049.23 1868.06 7049.23 2415 6989.23 2415ZM7254.24 1868.06 7313.24 1868.06 7313.24 2415 7254.24 2415Z" fill="#9381FF"/></g><g clip-path="url(#clip4)"><path d="M3144.5 2414.5 7378.5 2414.5" stroke="#D9D9D9" stroke-width="3.4375" stroke-linejoin="round" stroke-miterlimit="10" fill="none" fill-rule="evenodd"/></g><g clip-path="url(#clip5)"><path d="M3144.5 2414.5 3144.5 2520.5M4203.64 2414.5 4203.64 2520.5M5261.67 2414.5 5261.67 2520.5M6319.71 2414.5 6319.71 2520.5M7378.5 2414.5 7378.5 2520.5" stroke="#D9D9D9" stroke-width="3.4375" stroke-linejoin="round" stroke-miterlimit="10" fill="none"/></g><g clip-path="url(#clip6)"><path d="M3144.5 2520.5 3144.5 2625.5M4203.64 2520.5 4203.64 2625.5M5261.67 2520.5 5261.67 2625.5M6319.71 2520.5 6319.71 2625.5M7378.5 2520.5 7378.5 2625.5" stroke="#D9D9D9" stroke-width="3.4375" stroke-linejoin="round" stroke-miterlimit="10" fill="none"/></g><g clip-path="url(#clip7)"><text font-family="Calibri,Calibri_MSFontService,sans-serif" font-weight="400" font-size="55" transform="matrix(1 0 0 1 3066.04 2430)">0</text></g><g clip-path="url(#clip8)"><text font-family="Calibri,Calibri_MSFontService,sans-serif" font-weight="400" font-size="55" transform="matrix(1 0 0 1 3038.17 2314)">20</text></g><g clip-path="url(#clip9)"><text font-family="Calibri,Calibri_MSFontService,sans-serif" font-weight="400" font-size="55" transform="matrix(1 0 0 1 3038.17 2198)">40</text></g><g clip-path="url(#clip10)"><text font-family="Calibri,Calibri_MSFontService,sans-serif" font-weight="400" font-size="55" transform="matrix(1 0 0 1 3038.17 2082)">60</text></g><g clip-path="url(#clip11)"><text font-family="Calibri,Calibri_MSFontService,sans-serif" font-weight="400" font-size="55" transform="matrix(1 0 0 1 3038.17 1966)">80</text></g><g clip-path="url(#clip12)"><text font-family="Calibri,Calibri_MSFontService,sans-serif" font-weight="400" font-size="55" transform="matrix(1 0 0 1 3010.31 1850)">100</text></g><g clip-path="url(#clip13)"><text font-family="Calibri,Calibri_MSFontService,sans-serif" font-weight="400" font-size="55" transform="matrix(1 0 0 1 3183.91 2502)">Baseline</text></g><g clip-path="url(#clip14)"><text font-family="Calibri,Calibri_MSFontService,sans-serif" font-weight="400" font-size="55" transform="matrix(1 0 0 1 3508.58 2502)">GA</text></g><g clip-path="url(#clip15)"><text font-family="Calibri,Calibri_MSFontService,sans-serif" font-weight="400" font-size="55" transform="matrix(1 0 0 1 3777.9 2502)">SA</text></g><g clip-path="url(#clip16)"><text font-family="Calibri,Calibri_MSFontService,sans-serif" font-weight="400" font-size="55" transform="matrix(1 0 0 1 3989.86 2502)">Greedy</text></g><g clip-path="url(#clip17)"><text font-family="Calibri,Calibri_MSFontService,sans-serif" font-weight="400" font-size="55" transform="matrix(1 0 0 1 4242.33 2502)">Baseline</text></g><g clip-path="url(#clip18)"><text font-family="Calibri,Calibri_MSFontService,sans-serif" font-weight="400" font-size="55" transform="matrix(1 0 0 1 4567 2502)">GA</text></g><g clip-path="url(#clip19)"><text font-family="Calibri,Calibri_MSFontService,sans-serif" font-weight="400" font-size="55" transform="matrix(1 0 0 1 4836.32 2502)">SA</text></g><g clip-path="url(#clip20)"><text font-family="Calibri,Calibri_MSFontService,sans-serif" font-weight="400" font-size="55" transform="matrix(1 0 0 1 5048.28 2502)">Greedy</text></g><g clip-path="url(#clip21)"><text font-family="Calibri,Calibri_MSFontService,sans-serif" font-weight="400" font-size="55" transform="matrix(1 0 0 1 5300.75 2502)">Baseline</text></g><g clip-path="url(#clip22)"><text font-family="Calibri,Calibri_MSFontService,sans-serif" font-weight="400" font-size="55" transform="matrix(1 0 0 1 5625.43 2502)">GA</text></g><g clip-path="url(#clip23)"><text font-family="Calibri,Calibri_MSFontService,sans-serif" font-weight="400" font-size="55" transform="matrix(1 0 0 1 5894.74 2502)">SA</text></g><g clip-path="url(#clip24)"><text font-family="Calibri,Calibri_MSFontService,sans-serif" font-weight="400" font-size="55" transform="matrix(1 0 0 1 6106.71 2502)">Greedy</text></g><g clip-path="url(#clip25)"><text font-family="Calibri,Calibri_MSFontService,sans-serif" font-weight="400" font-size="55" transform="matrix(1 0 0 1 6359.18 2502)">Baseline</text></g><g clip-path="url(#clip26)"><text font-family="Calibri,Calibri_MSFontService,sans-serif" font-weight="400" font-size="55" transform="matrix(1 0 0 1 6683.85 2502)">GA</text></g><g clip-path="url(#clip27)"><text font-family="Calibri,Calibri_MSFontService,sans-serif" font-weight="400" font-size="55" transform="matrix(1 0 0 1 6953.16 2502)">SA</text></g><g clip-path="url(#clip28)"><text font-family="Calibri,Calibri_MSFontService,sans-serif" font-weight="400" font-size="55" transform="matrix(1 0 0 1 7165.13 2502)">Greedy</text></g><g clip-path="url(#clip29)"><text font-family="Calibri,Calibri_MSFontService,sans-serif" font-weight="400" font-size="55" transform="matrix(1 0 0 1 3566.27 2607)">ResNet18</text></g><g clip-path="url(#clip30)"><text font-family="Calibri,Calibri_MSFontService,sans-serif" font-weight="400" font-size="55" transform="matrix(1 0 0 1 4624.69 2607)">ResNet50</text></g><g clip-path="url(#clip31)"><text font-family="Calibri,Calibri_MSFontService,sans-serif" font-weight="400" font-size="55" transform="matrix(1 0 0 1 5642.03 2607)">MobileNetV2</text></g><g clip-path="url(#clip32)"><text font-family="Calibri,Calibri_MSFontService,sans-serif" font-weight="400" font-size="55" transform="matrix(1 0 0 1 6697.48 2607)">DenseNet121</text></g><g clip-path="url(#clip33)"><text font-family="Calibri,Calibri_MSFontService,sans-serif" font-weight="400" font-size="83" transform="matrix(1 0 0 1 4144.99 1750)">Top</text></g><g clip-path="url(#clip34)"><text font-family="Calibri,Calibri_MSFontService,sans-serif" font-weight="400" font-size="83" transform="matrix(1 0 0 1 4264.68 1750)">-</text></g><g clip-path="url(#clip35)"><text font-family="Calibri,Calibri_MSFontService,sans-serif" font-weight="400" font-size="83" transform="matrix(1 0 0 1 4289.93 1750)">1 and Top</text></g><g clip-path="url(#clip36)"><text font-family="Calibri,Calibri_MSFontService,sans-serif" font-weight="400" font-size="83" transform="matrix(1 0 0 1 4614.94 1750)">-</text></g><g clip-path="url(#clip37)"><text font-family="Calibri,Calibri_MSFontService,sans-serif" font-weight="400" font-size="83" transform="matrix(1 0 0 1 4640.19 1750)">5 Accuracies Across All Algorithms and Networks</text></g><g clip-path="url(#clip38)"><rect x="4793" y="2681" width="30.0005" height="30.0002" fill="#725BFF"/></g><g clip-path="url(#clip39)"><text font-family="Calibri,Calibri_MSFontService,sans-serif" font-weight="400" font-size="55" transform="matrix(1 0 0 1 4836.8 2711)">Top-1 Accuracy</text></g><g clip-path="url(#clip40)"><rect x="5250" y="2681" width="30" height="30.0002" fill="#9381FF"/></g><g clip-path="url(#clip41)"><text font-family="Calibri,Calibri_MSFontService,sans-serif" font-weight="400" font-size="55" transform="matrix(1 0 0 1 5293.81 2711)">Top-5 Accuracy</text></g><rect x="2981.5" y="1636.5" width="4448" height="1134" stroke="#D9D9D9" stroke-width="3.4375" stroke-linejoin="round" stroke-miterlimit="10" fill="none"/></g></svg>