<svg width="2219" height="1383" xmlns="http://www.w3.org/2000/svg" xmlns:xlink="http://www.w3.org/1999/xlink" xml:space="preserve" overflow="hidden"><defs><clipPath id="clip0"><rect x="5204" y="188" width="2219" height="1383"/></clipPath><clipPath id="clip1"><rect x="5204" y="188" width="2216" height="1381"/></clipPath><clipPath id="clip2"><rect x="5355" y="487" width="2018" height="851"/></clipPath><clipPath id="clip3"><rect x="5204" y="188" width="2216" height="1381"/></clipPath><clipPath id="clip4"><rect x="5204" y="188" width="2216" height="1381"/></clipPath><clipPath id="clip5"><rect x="5204" y="188" width="2216" height="1381"/></clipPath><clipPath id="clip6"><rect x="5204" y="188" width="2216" height="1381"/></clipPath><clipPath id="clip7"><rect x="5204" y="188" width="2216" height="1381"/></clipPath><clipPath id="clip8"><rect x="5204" y="188" width="2216" height="1381"/></clipPath><clipPath id="clip9"><rect x="5204" y="188" width="2216" height="1381"/></clipPath><clipPath id="clip10"><rect x="5204" y="188" width="2216" height="1381"/></clipPath><clipPath id="clip11"><rect x="5204" y="188" width="2216" height="1381"/></clipPath><clipPath id="clip12"><rect x="5204" y="188" width="2216" height="1381"/></clipPath><clipPath id="clip13"><rect x="5204" y="188" width="2216" height="1381"/></clipPath><clipPath id="clip14"><rect x="5204" y="188" width="2216" height="1381"/></clipPath><clipPath id="clip15"><rect x="5204" y="188" width="2216" height="1381"/></clipPath><clipPath id="clip16"><rect x="5204" y="188" width="2216" height="1381"/></clipPath><clipPath id="clip17"><rect x="5204" y="188" width="2216" height="1381"/></clipPath><clipPath id="clip18"><rect x="5204" y="188" width="2216" height="1381"/></clipPath><clipPath id="clip19"><rect x="5204" y="188" width="2216" height="1381"/></clipPath><clipPath id="clip20"><rect x="5204" y="188" width="2216" height="1381"/></clipPath><clipPath id="clip21"><rect x="5204" y="188" width="2216" height="1381"/></clipPath><clipPath id="clip22"><rect x="5204" y="188" width="2216" height="1381"/></clipPath><clipPath id="clip23"><rect x="5204" y="188" width="2216" height="1381"/></clipPath><clipPath id="clip24"><rect x="5204" y="188" width="2216" height="1381"/></clipPath><clipPath id="clip25"><rect x="5204" y="188" width="2216" height="1381"/></clipPath><clipPath id="clip26"><rect x="5204" y="188" width="2216" height="1381"/></clipPath><clipPath id="clip27"><rect x="5204" y="188" width="2216" height="1381"/></clipPath><clipPath id="clip28"><rect x="5204" y="188" width="2216" height="1381"/></clipPath><clipPath id="clip29"><rect x="5204" y="188" width="2216" height="1381"/></clipPath></defs><g clip-path="url(#clip0)" transform="translate(-5204 -188)"><rect x="5205" y="189" width="2216" height="1380" fill="#FFFFFF"/><g clip-path="url(#clip1)"><path d="M5355.5 1165.54 7370.5 1165.54M5355.5 996.533 7370.5 996.533M5355.5 826.527 7370.5 826.527M5355.5 657.522 7370.5 657.522M5355.5 487.5 7370.5 487.5" stroke="#D9D9D9" stroke-width="3.4375" stroke-linejoin="round" stroke-miterlimit="10" fill="none"/></g><g clip-path="url(#clip2)"><path d="M5395.18 488 5483.18 488 5483.18 1335 5395.18 1335ZM5563.18 1163.04 5651.19 1163.04 5651.19 1335 5563.18 1335ZM5731.19 1284.04 5819.19 1284.04 5819.19 1335 5731.19 1335ZM5899.19 488 5987.2 488 5987.2 1335 5899.19 1335ZM6067.2 1220.04 6155.2 1220.04 6155.2 1335 6067.2 1335ZM6235.2 1315.04 6323.21 1315.04 6323.21 1335 6235.2 1335ZM6402.21 488 6491.21 488 6491.21 1335 6402.21 1335ZM6570.22 1201.04 6659.22 1201.04 6659.22 1335 6570.22 1335ZM6738.22 1319.04 6827.22 1319.04 6827.22 1335 6738.22 1335ZM6906.23 488 6995.23 488 6995.23 1335 6906.23 1335ZM7074.23 1271.04 7163.24 1271.04 7163.24 1335 7074.23 1335ZM7242.24 1327.04 7331.24 1327.04 7331.24 1335 7242.24 1335Z" fill="#725BFF"/></g><g clip-path="url(#clip3)"><path d="M5355.5 1335.5 7370.5 1335.5" stroke="#D9D9D9" stroke-width="3.4375" stroke-linejoin="round" stroke-miterlimit="10" fill="none" fill-rule="evenodd"/></g><g clip-path="url(#clip4)"><path d="M5355.5 1335.5 5355.5 1440.5M5858.69 1335.5 5858.69 1440.5M6362.71 1335.5 6362.71 1440.5M6866.73 1335.5 6866.73 1440.5M7370.5 1335.5 7370.5 1440.5" stroke="#D9D9D9" stroke-width="3.4375" stroke-linejoin="round" stroke-miterlimit="10" fill="none"/></g><g clip-path="url(#clip5)"><path d="M5355.5 1440.5 5355.5 1546.5M5858.69 1440.5 5858.69 1546.5M6362.71 1440.5 6362.71 1546.5M6866.73 1440.5 6866.73 1546.5M7370.5 1440.5 7370.5 1546.5" stroke="#D9D9D9" stroke-width="3.4375" stroke-linejoin="round" stroke-miterlimit="10" fill="none"/></g><g clip-path="url(#clip6)"><text font-family="Calibri,Calibri_MSFontService,sans-serif" font-weight="400" font-size="55" transform="matrix(1 0 0 1 5276.43 1351)">0</text></g><g clip-path="url(#clip7)"><text font-family="Calibri,Calibri_MSFontService,sans-serif" font-weight="400" font-size="55" transform="matrix(1 0 0 1 5234.67 1181)">0.2</text></g><g clip-path="url(#clip8)"><text font-family="Calibri,Calibri_MSFontService,sans-serif" font-weight="400" font-size="55" transform="matrix(1 0 0 1 5234.67 1012)">0.4</text></g><g clip-path="url(#clip9)"><text font-family="Calibri,Calibri_MSFontService,sans-serif" font-weight="400" font-size="55" transform="matrix(1 0 0 1 5234.67 842)">0.6</text></g><g clip-path="url(#clip10)"><text font-family="Calibri,Calibri_MSFontService,sans-serif" font-weight="400" font-size="55" transform="matrix(1 0 0 1 5234.67 673)">0.8</text></g><g clip-path="url(#clip11)"><text font-family="Calibri,Calibri_MSFontService,sans-serif" font-weight="400" font-size="55" transform="matrix(1 0 0 1 5276.43 503)">1</text></g><g clip-path="url(#clip12)"><text font-family="Calibri,Calibri_MSFontService,sans-serif" font-weight="400" font-size="55" transform="matrix(1 0 0 1 5358.09 1422)">Greedy</text></g><g clip-path="url(#clip13)"><text font-family="Calibri,Calibri_MSFontService,sans-serif" font-weight="400" font-size="55" transform="matrix(1 0 0 1 5573.96 1422)">GA</text></g><g clip-path="url(#clip14)"><text font-family="Calibri,Calibri_MSFontService,sans-serif" font-weight="400" font-size="55" transform="matrix(1 0 0 1 5746.6 1422)">SA</text></g><g clip-path="url(#clip15)"><text font-family="Calibri,Calibri_MSFontService,sans-serif" font-weight="400" font-size="55" transform="matrix(1 0 0 1 5861.9 1422)">Greedy</text></g><g clip-path="url(#clip16)"><text font-family="Calibri,Calibri_MSFontService,sans-serif" font-weight="400" font-size="55" transform="matrix(1 0 0 1 6077.76 1422)">GA</text></g><g clip-path="url(#clip17)"><text font-family="Calibri,Calibri_MSFontService,sans-serif" font-weight="400" font-size="55" transform="matrix(1 0 0 1 6250.41 1422)">SA</text></g><g clip-path="url(#clip18)"><text font-family="Calibri,Calibri_MSFontService,sans-serif" font-weight="400" font-size="55" transform="matrix(1 0 0 1 6365.7 1422)">Greedy</text></g><g clip-path="url(#clip19)"><text font-family="Calibri,Calibri_MSFontService,sans-serif" font-weight="400" font-size="55" transform="matrix(1 0 0 1 6581.57 1422)">GA</text></g><g clip-path="url(#clip20)"><text font-family="Calibri,Calibri_MSFontService,sans-serif" font-weight="400" font-size="55" transform="matrix(1 0 0 1 6754.21 1422)">SA</text></g><g clip-path="url(#clip21)"><text font-family="Calibri,Calibri_MSFontService,sans-serif" font-weight="400" font-size="55" transform="matrix(1 0 0 1 6869.51 1422)">Greedy</text></g><g clip-path="url(#clip22)"><text font-family="Calibri,Calibri_MSFontService,sans-serif" font-weight="400" font-size="55" transform="matrix(1 0 0 1 7085.37 1422)">GA</text></g><g clip-path="url(#clip23)"><text font-family="Calibri,Calibri_MSFontService,sans-serif" font-weight="400" font-size="55" transform="matrix(1 0 0 1 7258.02 1422)">SA</text></g><g clip-path="url(#clip24)"><text font-family="Calibri,Calibri_MSFontService,sans-serif" font-weight="400" font-size="55" transform="matrix(1 0 0 1 5499.34 1528)">ResNet18</text></g><g clip-path="url(#clip25)"><text font-family="Calibri,Calibri_MSFontService,sans-serif" font-weight="400" font-size="55" transform="matrix(1 0 0 1 6003.15 1528)">ResNet50</text></g><g clip-path="url(#clip26)"><text font-family="Calibri,Calibri_MSFontService,sans-serif" font-weight="400" font-size="55" transform="matrix(1 0 0 1 6465.87 1528)">MobileNetV2</text></g><g clip-path="url(#clip27)"><text font-family="Calibri,Calibri_MSFontService,sans-serif" font-weight="400" font-size="55" transform="matrix(1 0 0 1 6966.7 1528)">DenseNet121</text></g><g clip-path="url(#clip28)"><text font-family="Calibri,Calibri_MSFontService,sans-serif" font-weight="400" font-size="83" transform="matrix(1 0 0 1 5492.54 302)">Compute Time Normalized To Greedy/Exhaustive </text></g><g clip-path="url(#clip29)"><text font-family="Calibri,Calibri_MSFontService,sans-serif" font-weight="400" font-size="83" transform="matrix(1 0 0 1 6146.42 402)">Algorithm</text></g><rect x="5205.5" y="189.5" width="2216" height="1380" stroke="#D9D9D9" stroke-width="3.4375" stroke-linejoin="round" stroke-miterlimit="10" fill="none"/></g></svg>