<svg width="2216" height="1385" xmlns="http://www.w3.org/2000/svg" xmlns:xlink="http://www.w3.org/1999/xlink" xml:space="preserve" overflow="hidden"><defs><clipPath id="clip0"><rect x="2971" y="190" width="2216" height="1385"/></clipPath><clipPath id="clip1"><rect x="2971" y="190" width="2213" height="1383"/></clipPath><clipPath id="clip2"><rect x="3122" y="590" width="2015" height="511"/></clipPath><clipPath id="clip3"><rect x="3122" y="590" width="2015" height="511"/></clipPath><clipPath id="clip4"><rect x="3122" y="590" width="2015" height="511"/></clipPath><clipPath id="clip5"><rect x="2971" y="190" width="2213" height="1383"/></clipPath><clipPath id="clip6"><rect x="2971" y="190" width="2213" height="1383"/></clipPath><clipPath id="clip7"><rect x="2971" y="190" width="2213" height="1383"/></clipPath><clipPath id="clip8"><rect x="2971" y="190" width="2213" height="1383"/></clipPath><clipPath id="clip9"><rect x="2971" y="190" width="2213" height="1383"/></clipPath><clipPath id="clip10"><rect x="2971" y="190" width="2213" height="1383"/></clipPath><clipPath id="clip11"><rect x="2971" y="190" width="2213" height="1383"/></clipPath><clipPath id="clip12"><rect x="2971" y="190" width="2213" height="1383"/></clipPath><clipPath id="clip13"><rect x="2971" y="190" width="2213" height="1383"/></clipPath><clipPath id="clip14"><rect x="2971" y="190" width="2213" height="1383"/></clipPath><clipPath id="clip15"><rect x="2971" y="190" width="2213" height="1383"/></clipPath><clipPath id="clip16"><rect x="2971" y="190" width="2213" height="1383"/></clipPath><clipPath id="clip17"><rect x="2971" y="190" width="2213" height="1383"/></clipPath><clipPath id="clip18"><rect x="2971" y="190" width="2213" height="1383"/></clipPath><clipPath id="clip19"><rect x="2971" y="190" width="2213" height="1383"/></clipPath><clipPath id="clip20"><rect x="2971" y="190" width="2213" height="1383"/></clipPath><clipPath id="clip21"><rect x="2971" y="190" width="2213" height="1383"/></clipPath><clipPath id="clip22"><rect x="2971" y="190" width="2213" height="1383"/></clipPath><clipPath id="clip23"><rect x="2971" y="190" width="2213" height="1383"/></clipPath><clipPath id="clip24"><rect x="2971" y="190" width="2213" height="1383"/></clipPath><clipPath id="clip25"><rect x="2971" y="190" width="2213" height="1383"/></clipPath><clipPath id="clip26"><rect x="2971" y="190" width="2213" height="1383"/></clipPath><clipPath id="clip27"><rect x="2971" y="190" width="2213" height="1383"/></clipPath><clipPath id="clip28"><rect x="2971" y="190" width="2213" height="1383"/></clipPath><clipPath id="clip29"><rect x="2971" y="190" width="2213" height="1383"/></clipPath><clipPath id="clip30"><rect x="2971" y="190" width="2213" height="1383"/></clipPath><clipPath id="clip31"><rect x="2971" y="190" width="2213" height="1383"/></clipPath><clipPath id="clip32"><rect x="2971" y="190" width="2213" height="1383"/></clipPath><clipPath id="clip33"><rect x="2971" y="190" width="2213" height="1383"/></clipPath><clipPath id="clip34"><rect x="2971" y="190" width="2213" height="1383"/></clipPath><clipPath id="clip35"><rect x="2971" y="190" width="2213" height="1383"/></clipPath><clipPath id="clip36"><rect x="2971" y="190" width="2213" height="1383"/></clipPath><clipPath id="clip37"><rect x="2971" y="190" width="2213" height="1383"/></clipPath><clipPath id="clip38"><rect x="2971" y="190" width="2213" height="1383"/></clipPath><clipPath id="clip39"><rect x="2971" y="190" width="2213" height="1383"/></clipPath><clipPath id="clip40"><rect x="2971" y="190" width="2213" height="1383"/></clipPath><clipPath id="clip41"><rect x="2971" y="190" width="2213" height="1383"/></clipPath><clipPath id="clip42"><rect x="2971" y="190" width="2213" height="1383"/></clipPath><clipPath id="clip43"><rect x="2971" y="190" width="2213" height="1383"/></clipPath><clipPath id="clip44"><rect x="2971" y="190" width="2213" height="1383"/></clipPath></defs><g clip-path="url(#clip0)" transform="translate(-2971 -190)"><rect x="2972" y="191" width="2213" height="1382" fill="#FFFFFF"/><g clip-path="url(#clip1)"><path d="M3122.5 996.533 5134.5 996.533M3122.5 895.53 5134.5 895.53M3122.5 793.526 5134.5 793.526M3122.5 692.523 5134.5 692.523M3122.5 590.5 5134.5 590.5" stroke="#D9D9D9" stroke-width="3.4375" stroke-linejoin="round" stroke-miterlimit="10" fill="none"/></g><g clip-path="url(#clip2)"><path d="M3135.1 733.024 3235.11 733.024 3235.11 1098 3135.1 1098ZM3260.11 998.033 3361.11 998.033 3361.11 1098 3260.11 1098ZM3386.11 1029.03 3487.11 1029.03 3487.11 1098 3386.11 1098ZM3512.12 1030.03 3612.12 1030.03 3612.12 1098 3512.12 1098ZM3638.12 733.024 3738.12 733.024 3738.12 1098 3638.12 1098ZM3763.12 987.032 3864.13 987.032 3864.13 1098 3763.12 1098ZM3889.13 987.032 3990.13 987.032 3990.13 1098 3889.13 1098ZM4015.13 1029.03 4115.14 1029.03 4115.14 1098 4015.13 1098ZM4141.14 733.024 4241.14 733.024 4241.14 1098 4141.14 1098ZM4266.14 987.032 4367.14 987.032 4367.14 1098 4266.14 1098ZM4392.14 1016.03 4493.15 1016.03 4493.15 1098 4392.14 1098ZM4518.15 1001.03 4618.15 1001.03 4618.15 1098 4518.15 1098ZM4644.15 733.024 4744.16 733.024 4744.16 1098 4644.15 1098ZM4769.16 1003.03 4870.16 1003.03 4870.16 1098 4769.16 1098ZM4895.16 1039.03 4996.16 1039.03 4996.16 1098 4895.16 1098ZM5021.17 1036.03 5121.17 1036.03 5121.17 1098 5021.17 1098Z" fill="#725BFF"/></g><g clip-path="url(#clip3)"><path d="M3135.1 607.02 3235.11 607.02 3235.11 733.024 3135.1 733.024ZM3260.11 920.03 3361.11 920.03 3361.11 998.033 3260.11 998.033ZM3386.11 950.031 3487.11 950.031 3487.11 1029.03 3386.11 1029.03ZM3512.12 951.031 3612.12 951.031 3612.12 1030.03 3512.12 1030.03ZM3638.12 607.02 3738.12 607.02 3738.12 733.024 3638.12 733.024ZM3763.12 908.03 3864.13 908.03 3864.13 987.032 3763.12 987.032ZM3889.13 908.03 3990.13 908.03 3990.13 987.032 3889.13 987.032ZM4015.13 949.031 4115.14 949.031 4115.14 1029.03 4015.13 1029.03ZM4141.14 607.02 4241.14 607.02 4241.14 733.024 4141.14 733.024ZM4266.14 910.03 4367.14 910.03 4367.14 987.032 4266.14 987.032ZM4392.14 939.031 4493.15 939.031 4493.15 1016.03 4392.14 1016.03ZM4518.15 924.03 4618.15 924.03 4618.15 1001.03 4518.15 1001.03ZM4644.15 607.02 4744.16 607.02 4744.16 733.024 4644.15 733.024ZM4769.16 928.03 4870.16 928.03 4870.16 1003.03 4769.16 1003.03ZM4895.16 964.032 4996.16 964.032 4996.16 1039.03 4895.16 1039.03ZM5021.17 961.031 5121.17 961.031 5121.17 1036.03 5021.17 1036.03Z" fill="#9381FF"/></g><g clip-path="url(#clip4)"><path d="M3135.1 591 3235.11 591 3235.11 607.02 3135.1 607.02ZM3260.11 904.03 3361.11 904.03 3361.11 920.03 3260.11 920.03ZM3386.11 935.031 3487.11 935.031 3487.11 950.031 3386.11 950.031ZM3512.12 935.031 3612.12 935.031 3612.12 951.031 3512.12 951.031ZM3638.12 591 3738.12 591 3738.12 607.02 3638.12 607.02ZM3763.12 892.029 3864.13 892.029 3864.13 908.03 3763.12 908.03ZM3889.13 892.029 3990.13 892.029 3990.13 908.03 3889.13 908.03ZM4015.13 934.031 4115.14 934.031 4115.14 949.031 4015.13 949.031ZM4141.14 591 4241.14 591 4241.14 607.02 4141.14 607.02ZM4266.14 894.029 4367.14 894.029 4367.14 910.03 4266.14 910.03ZM4392.14 923.03 4493.15 923.03 4493.15 939.031 4392.14 939.031ZM4518.15 908.03 4618.15 908.03 4618.15 924.03 4518.15 924.03ZM4644.15 591 4744.16 591 4744.16 607.02 4644.15 607.02ZM4769.16 912.03 4870.16 912.03 4870.16 928.03 4769.16 928.03ZM4895.16 949.031 4996.16 949.031 4996.16 964.032 4895.16 964.032ZM5021.17 945.031 5121.17 945.031 5121.17 961.031 5021.17 961.031Z" fill="#B8B8FF"/></g><g clip-path="url(#clip5)"><path d="M3122.5 1098.5 5134.5 1098.5" stroke="#D9D9D9" stroke-width="3.4375" stroke-linejoin="round" stroke-miterlimit="10" fill="none" fill-rule="evenodd"/></g><g clip-path="url(#clip6)"><path d="M3122.5 1098.5 3122.5 1323.5M3625.62 1098.5 3625.62 1323.5M4128.64 1098.5 4128.64 1323.5M4630.65 1098.5 4630.65 1323.5M5134.5 1098.5 5134.5 1323.5" stroke="#D9D9D9" stroke-width="3.4375" stroke-linejoin="round" stroke-miterlimit="10" fill="none"/></g><g clip-path="url(#clip7)"><path d="M3122.5 1323.5 3122.5 1428.5M3625.62 1323.5 3625.62 1428.5M4128.64 1323.5 4128.64 1428.5M4630.65 1323.5 4630.65 1428.5M5134.5 1323.5 5134.5 1428.5" stroke="#D9D9D9" stroke-width="3.4375" stroke-linejoin="round" stroke-miterlimit="10" fill="none"/></g><g clip-path="url(#clip8)"><text font-family="Calibri,Calibri_MSFontService,sans-serif" font-weight="400" font-size="55" transform="matrix(1 0 0 1 3043.26 1114)">0</text></g><g clip-path="url(#clip9)"><text font-family="Calibri,Calibri_MSFontService,sans-serif" font-weight="400" font-size="55" transform="matrix(1 0 0 1 3001.51 1012)">0.2</text></g><g clip-path="url(#clip10)"><text font-family="Calibri,Calibri_MSFontService,sans-serif" font-weight="400" font-size="55" transform="matrix(1 0 0 1 3001.51 911)">0.4</text></g><g clip-path="url(#clip11)"><text font-family="Calibri,Calibri_MSFontService,sans-serif" font-weight="400" font-size="55" transform="matrix(1 0 0 1 3001.51 809)">0.6</text></g><g clip-path="url(#clip12)"><text font-family="Calibri,Calibri_MSFontService,sans-serif" font-weight="400" font-size="55" transform="matrix(1 0 0 1 3001.51 708)">0.8</text></g><g clip-path="url(#clip13)"><text font-family="Calibri,Calibri_MSFontService,sans-serif" font-weight="400" font-size="55" transform="matrix(1 0 0 1 3043.26 606)">1</text></g><g clip-path="url(#clip14)"><text font-family="Calibri,Calibri_MSFontService,sans-serif" font-weight="400" font-size="55" transform="matrix(6.12323e-17 -1 1 6.12323e-17 3203.46 1320)">Baseline</text></g><g clip-path="url(#clip15)"><text font-family="Calibri,Calibri_MSFontService,sans-serif" font-weight="400" font-size="55" transform="matrix(6.12323e-17 -1 1 6.12323e-17 3329.21 1200)">GA</text></g><g clip-path="url(#clip16)"><text font-family="Calibri,Calibri_MSFontService,sans-serif" font-weight="400" font-size="55" transform="matrix(6.12323e-17 -1 1 6.12323e-17 3454.96 1190)">SA</text></g><g clip-path="url(#clip17)"><text font-family="Calibri,Calibri_MSFontService,sans-serif" font-weight="400" font-size="55" transform="matrix(6.12323e-17 -1 1 6.12323e-17 3580.71 1296)">Greedy</text></g><g clip-path="url(#clip18)"><text font-family="Calibri,Calibri_MSFontService,sans-serif" font-weight="400" font-size="55" transform="matrix(6.12323e-17 -1 1 6.12323e-17 3706.46 1320)">Baseline</text></g><g clip-path="url(#clip19)"><text font-family="Calibri,Calibri_MSFontService,sans-serif" font-weight="400" font-size="55" transform="matrix(6.12323e-17 -1 1 6.12323e-17 3832.21 1200)">GA</text></g><g clip-path="url(#clip20)"><text font-family="Calibri,Calibri_MSFontService,sans-serif" font-weight="400" font-size="55" transform="matrix(6.12323e-17 -1 1 6.12323e-17 3957.95 1190)">SA</text></g><g clip-path="url(#clip21)"><text font-family="Calibri,Calibri_MSFontService,sans-serif" font-weight="400" font-size="55" transform="matrix(6.12323e-17 -1 1 6.12323e-17 4083.7 1296)">Greedy</text></g><g clip-path="url(#clip22)"><text font-family="Calibri,Calibri_MSFontService,sans-serif" font-weight="400" font-size="55" transform="matrix(6.12323e-17 -1 1 6.12323e-17 4209.45 1320)">Baseline</text></g><g clip-path="url(#clip23)"><text font-family="Calibri,Calibri_MSFontService,sans-serif" font-weight="400" font-size="55" transform="matrix(6.12323e-17 -1 1 6.12323e-17 4335.2 1200)">GA</text></g><g clip-path="url(#clip24)"><text font-family="Calibri,Calibri_MSFontService,sans-serif" font-weight="400" font-size="55" transform="matrix(6.12323e-17 -1 1 6.12323e-17 4460.95 1190)">SA</text></g><g clip-path="url(#clip25)"><text font-family="Calibri,Calibri_MSFontService,sans-serif" font-weight="400" font-size="55" transform="matrix(6.12323e-17 -1 1 6.12323e-17 4586.7 1296)">Greedy</text></g><g clip-path="url(#clip26)"><text font-family="Calibri,Calibri_MSFontService,sans-serif" font-weight="400" font-size="55" transform="matrix(6.12323e-17 -1 1 6.12323e-17 4712.45 1320)">Baseline</text></g><g clip-path="url(#clip27)"><text font-family="Calibri,Calibri_MSFontService,sans-serif" font-weight="400" font-size="55" transform="matrix(6.12323e-17 -1 1 6.12323e-17 4838.2 1200)">GA</text></g><g clip-path="url(#clip28)"><text font-family="Calibri,Calibri_MSFontService,sans-serif" font-weight="400" font-size="55" transform="matrix(6.12323e-17 -1 1 6.12323e-17 4963.95 1190)">SA</text></g><g clip-path="url(#clip29)"><text font-family="Calibri,Calibri_MSFontService,sans-serif" font-weight="400" font-size="55" transform="matrix(6.12323e-17 -1 1 6.12323e-17 5089.69 1296)">Greedy</text></g><g clip-path="url(#clip30)"><text font-family="Calibri,Calibri_MSFontService,sans-serif" font-weight="400" font-size="55" transform="matrix(1 0 0 1 3265.78 1410)">ResNet18</text></g><g clip-path="url(#clip31)"><text font-family="Calibri,Calibri_MSFontService,sans-serif" font-weight="400" font-size="55" transform="matrix(1 0 0 1 3768.77 1410)">ResNet50</text></g><g clip-path="url(#clip32)"><text font-family="Calibri,Calibri_MSFontService,sans-serif" font-weight="400" font-size="55" transform="matrix(1 0 0 1 4230.69 1410)">MobileNetV2</text></g><g clip-path="url(#clip33)"><text font-family="Calibri,Calibri_MSFontService,sans-serif" font-weight="400" font-size="55" transform="matrix(1 0 0 1 4730.71 1410)">DenseNet121</text></g><g clip-path="url(#clip34)"><text font-family="Calibri,Calibri_MSFontService,sans-serif" font-weight="400" font-size="83" transform="matrix(1 0 0 1 3326.22 304)">Footprint Distribution for All Methods Versus </text></g><g clip-path="url(#clip35)"><text font-family="Calibri,Calibri_MSFontService,sans-serif" font-weight="400" font-size="83" transform="matrix(1 0 0 1 3209.16 404)">Baseline FP32 </text></g><g clip-path="url(#clip36)"><text font-family="Calibri,Calibri_MSFontService,sans-serif" font-weight="400" font-size="83" transform="matrix(1 0 0 1 3690.57 404)">-</text></g><g clip-path="url(#clip37)"><text font-family="Calibri,Calibri_MSFontService,sans-serif" font-weight="400" font-size="83" transform="matrix(1 0 0 1 3734.48 404)">Spread Across Mantissas, Exponents </text></g><g clip-path="url(#clip38)"><text font-family="Calibri,Calibri_MSFontService,sans-serif" font-weight="400" font-size="83" transform="matrix(1 0 0 1 3936.22 505)">and Sign</text></g><g clip-path="url(#clip39)"><rect x="3351" y="1484" width="30.0002" height="29.9999" fill="#725BFF"/></g><g clip-path="url(#clip40)"><text font-family="Calibri,Calibri_MSFontService,sans-serif" font-weight="400" font-size="55" transform="matrix(1 0 0 1 3394.77 1514)">Mantissa Footprint</text></g><g clip-path="url(#clip41)"><rect x="3904" y="1484" width="31" height="29.9999" fill="#9381FF"/></g><g clip-path="url(#clip42)"><text font-family="Calibri,Calibri_MSFontService,sans-serif" font-weight="400" font-size="55" transform="matrix(1 0 0 1 3947.9 1514)">Exponent Footprint</text></g><g clip-path="url(#clip43)"><rect x="4467" y="1484" width="30" height="29.9999" fill="#B8B8FF"/></g><g clip-path="url(#clip44)"><text font-family="Calibri,Calibri_MSFontService,sans-serif" font-weight="400" font-size="55" transform="matrix(1 0 0 1 4510.47 1514)">Sign Footprint</text></g><rect x="2972.5" y="191.5" width="2213" height="1382" stroke="#D9D9D9" stroke-width="3.4375" stroke-linejoin="round" stroke-miterlimit="10" fill="none"/></g></svg>