<svg width="2857" height="1907" xmlns="http://www.w3.org/2000/svg" xmlns:xlink="http://www.w3.org/1999/xlink" xml:space="preserve" overflow="hidden"><defs><clipPath id="clip0"><rect x="2844" y="322" width="2857" height="1907"/></clipPath><clipPath id="clip1"><rect x="2844" y="323" width="2855" height="1904"/></clipPath><clipPath id="clip2"><rect x="3103" y="622" width="2354" height="894"/></clipPath><clipPath id="clip3"><rect x="2844" y="323" width="2855" height="1904"/></clipPath><clipPath id="clip4"><rect x="2844" y="323" width="2855" height="1904"/></clipPath><clipPath id="clip5"><rect x="2844" y="323" width="2855" height="1904"/></clipPath><clipPath id="clip6"><rect x="2844" y="323" width="2855" height="1904"/></clipPath><clipPath id="clip7"><rect x="2844" y="323" width="2855" height="1904"/></clipPath><clipPath id="clip8"><rect x="2844" y="323" width="2855" height="1904"/></clipPath><clipPath id="clip9"><rect x="2844" y="323" width="2855" height="1904"/></clipPath><clipPath id="clip10"><rect x="2844" y="323" width="2855" height="1904"/></clipPath><clipPath id="clip11"><rect x="2844" y="323" width="2855" height="1904"/></clipPath><clipPath id="clip12"><rect x="2844" y="323" width="2855" height="1904"/></clipPath><clipPath id="clip13"><rect x="2844" y="323" width="2855" height="1904"/></clipPath><clipPath id="clip14"><rect x="2844" y="323" width="2855" height="1904"/></clipPath><clipPath id="clip15"><rect x="2844" y="323" width="2855" height="1904"/></clipPath><clipPath id="clip16"><rect x="2844" y="323" width="2855" height="1904"/></clipPath><clipPath id="clip17"><rect x="2844" y="323" width="2855" height="1904"/></clipPath><clipPath id="clip18"><rect x="2844" y="323" width="2855" height="1904"/></clipPath><clipPath id="clip19"><rect x="2844" y="323" width="2855" height="1904"/></clipPath><clipPath id="clip20"><rect x="2844" y="323" width="2855" height="1904"/></clipPath><clipPath id="clip21"><rect x="2844" y="323" width="2855" height="1904"/></clipPath><clipPath id="clip22"><rect x="2844" y="323" width="2855" height="1904"/></clipPath><clipPath id="clip23"><rect x="2844" y="323" width="2855" height="1904"/></clipPath><clipPath id="clip24"><rect x="2844" y="323" width="2855" height="1904"/></clipPath><clipPath id="clip25"><rect x="2844" y="323" width="2855" height="1904"/></clipPath><clipPath id="clip26"><rect x="2844" y="323" width="2855" height="1904"/></clipPath><clipPath id="clip27"><rect x="2844" y="323" width="2855" height="1904"/></clipPath><clipPath id="clip28"><rect x="2844" y="323" width="2855" height="1904"/></clipPath><clipPath id="clip29"><rect x="2844" y="323" width="2855" height="1904"/></clipPath><clipPath id="clip30"><rect x="2844" y="323" width="2855" height="1904"/></clipPath><clipPath id="clip31"><rect x="2844" y="323" width="2855" height="1904"/></clipPath><clipPath id="clip32"><rect x="2844" y="323" width="2855" height="1904"/></clipPath><clipPath id="clip33"><rect x="2844" y="323" width="2855" height="1904"/></clipPath><clipPath id="clip34"><rect x="2844" y="323" width="2855" height="1904"/></clipPath><clipPath id="clip35"><rect x="2844" y="323" width="2855" height="1904"/></clipPath><clipPath id="clip36"><rect x="2844" y="323" width="2855" height="1904"/></clipPath><clipPath id="clip37"><rect x="2844" y="323" width="2855" height="1904"/></clipPath><clipPath id="clip38"><rect x="2844" y="323" width="2855" height="1904"/></clipPath><clipPath id="clip39"><rect x="2844" y="323" width="2855" height="1904"/></clipPath></defs><g clip-path="url(#clip0)" transform="translate(-2844 -322)"><rect x="2845" y="323" width="2854" height="1904" fill="#FFFFFF"/><g clip-path="url(#clip1)"><path d="M3103.5 1364.54 5454.5 1364.54M3103.5 1216.54 5454.5 1216.54M3103.5 1067.54 5454.5 1067.54M3103.5 919.53 5454.5 919.53M3103.5 770.526 5454.5 770.526M3103.5 622.5 5454.5 622.5" stroke="#D9D9D9" stroke-width="3.4375" stroke-linejoin="round" stroke-miterlimit="10" fill="none"/></g><g clip-path="url(#clip2)"><path d="M3136.1 771.025 3267.11 771.025 3267.11 1513 3136.1 1513ZM3332.11 1231.04 3462.11 1231.04 3462.11 1513 3332.11 1513ZM3528.12 1283.04 3658.12 1283.04 3658.12 1513 3528.12 1513ZM3724.12 1190.04 3854.13 1190.04 3854.13 1513 3724.12 1513ZM3920.13 1275.04 4050.13 1275.04 4050.13 1513 3920.13 1513ZM4115.13 771.025 4246.14 771.025 4246.14 1513 4115.13 1513ZM4311.14 1213.04 4442.15 1213.04 4442.15 1513 4311.14 1513ZM4507.15 1279.04 4638.15 1279.04 4638.15 1513 4507.15 1513ZM4703.15 1189.04 4834.16 1189.04 4834.16 1513 4703.15 1513ZM4899.16 1273.04 5030.17 1273.04 5030.17 1513 4899.16 1513ZM5095.17 771.025 5226.17 771.025 5226.17 1513 5095.17 1513ZM5291.17 1216.04 5422.18 1216.04 5422.18 1513 5291.17 1513Z" fill="#725BFF"/></g><g clip-path="url(#clip3)"><path d="M3103.5 1513.5 5454.5 1513.5" stroke="#D9D9D9" stroke-width="3.4375" stroke-linejoin="round" stroke-miterlimit="10" fill="none" fill-rule="evenodd"/></g><g clip-path="url(#clip4)"><path d="M3212.53 796.624C3212.53 802.976 3207.38 808.124 3201.03 808.124 3194.68 808.124 3189.53 802.976 3189.53 796.624 3189.53 790.273 3194.68 785.125 3201.03 785.125 3207.38 785.125 3212.53 790.273 3212.53 796.624Z" fill="#400D67"/><path d="M3408.53 802.625C3408.53 808.976 3403.38 814.125 3397.03 814.125 3390.68 814.125 3385.53 808.976 3385.53 802.625 3385.53 796.273 3390.68 791.125 3397.03 791.125 3403.38 791.125 3408.53 796.273 3408.53 802.625Z" fill="#400D67"/><path d="M3604.53 1023.62C3604.53 1029.98 3599.38 1035.12 3593.03 1035.12 3586.68 1035.12 3581.53 1029.98 3581.53 1023.62 3581.53 1017.27 3586.68 1012.12 3593.03 1012.12 3599.38 1012.12 3604.53 1017.27 3604.53 1023.62Z" fill="#400D67"/><path d="M3800.53 795.624C3800.53 801.976 3795.38 807.124 3789.03 807.124 3782.68 807.124 3777.53 801.976 3777.53 795.624 3777.53 789.273 3782.68 784.125 3789.03 784.125 3795.38 784.125 3800.53 789.273 3800.53 795.624Z" fill="#400D67"/><path d="M3996.53 794.624C3996.53 800.976 3991.38 806.124 3985.03 806.124 3978.68 806.124 3973.53 800.976 3973.53 794.624 3973.53 788.273 3978.68 783.125 3985.03 783.125 3991.38 783.125 3996.53 788.273 3996.53 794.624Z" fill="#400D67"/><path d="M4192.53 799.625C4192.53 805.976 4187.38 811.124 4181.03 811.124 4174.68 811.124 4169.53 805.976 4169.53 799.625 4169.53 793.273 4174.68 788.125 4181.03 788.125 4187.38 788.125 4192.53 793.273 4192.53 799.625Z" fill="#400D67"/><path d="M4388.53 804.624C4388.53 810.976 4383.38 816.124 4377.03 816.124 4370.68 816.124 4365.53 810.976 4365.53 804.624 4365.53 798.273 4370.68 793.125 4377.03 793.125 4383.38 793.125 4388.53 798.273 4388.53 804.624Z" fill="#400D67"/><path d="M4584.53 1144.62C4584.53 1150.98 4579.38 1156.12 4573.03 1156.12 4566.68 1156.12 4561.53 1150.98 4561.53 1144.62 4561.53 1138.27 4566.68 1133.12 4573.03 1133.12 4579.38 1133.12 4584.53 1138.27 4584.53 1144.62Z" fill="#400D67"/><path d="M4780.53 803.625C4780.53 809.976 4775.38 815.125 4769.03 815.125 4762.68 815.125 4757.53 809.976 4757.53 803.625 4757.53 797.274 4762.68 792.125 4769.03 792.125 4775.38 792.125 4780.53 797.274 4780.53 803.625Z" fill="#400D67"/><path d="M4976.53 801.625C4976.53 807.976 4971.38 813.125 4965.03 813.125 4958.68 813.125 4953.53 807.976 4953.53 801.625 4953.53 795.273 4958.68 790.125 4965.03 790.125 4971.38 790.125 4976.53 795.273 4976.53 801.625Z" fill="#400D67"/><path d="M5172.53 888.625C5172.53 894.976 5167.38 900.124 5161.03 900.124 5154.68 900.124 5149.53 894.976 5149.53 888.625 5149.53 882.273 5154.68 877.125 5161.03 877.125 5167.38 877.125 5172.53 882.273 5172.53 888.625Z" fill="#400D67"/><path d="M5367.53 894.624C5367.53 900.976 5362.38 906.124 5356.03 906.124 5349.68 906.124 5344.53 900.976 5344.53 894.624 5344.53 888.273 5349.68 883.125 5356.03 883.125 5362.38 883.125 5367.53 888.273 5367.53 894.624Z" fill="#400D67"/></g><g clip-path="url(#clip5)"><text fill="#595959" font-family="Calibri,Calibri_MSFontService,sans-serif" font-weight="400" font-size="55" transform="matrix(1 0 0 1 5505.45 1529)">50</text></g><g clip-path="url(#clip6)"><text fill="#595959" font-family="Calibri,Calibri_MSFontService,sans-serif" font-weight="400" font-size="55" transform="matrix(1 0 0 1 5505.45 1380)">55</text></g><g clip-path="url(#clip7)"><text fill="#595959" font-family="Calibri,Calibri_MSFontService,sans-serif" font-weight="400" font-size="55" transform="matrix(1 0 0 1 5505.45 1232)">60</text></g><g clip-path="url(#clip8)"><text fill="#595959" font-family="Calibri,Calibri_MSFontService,sans-serif" font-weight="400" font-size="55" transform="matrix(1 0 0 1 5505.45 1083)">65</text></g><g clip-path="url(#clip9)"><text fill="#595959" font-family="Calibri,Calibri_MSFontService,sans-serif" font-weight="400" font-size="55" transform="matrix(1 0 0 1 5505.45 935)">70</text></g><g clip-path="url(#clip10)"><text fill="#595959" font-family="Calibri,Calibri_MSFontService,sans-serif" font-weight="400" font-size="55" transform="matrix(1 0 0 1 5505.45 786)">75</text></g><g clip-path="url(#clip11)"><text fill="#595959" font-family="Calibri,Calibri_MSFontService,sans-serif" font-weight="400" font-size="55" transform="matrix(1 0 0 1 5505.45 638)">80</text></g><g clip-path="url(#clip12)"><text font-family="Calibri,Calibri_MSFontService,sans-serif" font-weight="400" font-size="55" transform="matrix(1 0 0 1 3024.47 1529)">0</text></g><g clip-path="url(#clip13)"><text font-family="Calibri,Calibri_MSFontService,sans-serif" font-weight="400" font-size="55" transform="matrix(1 0 0 1 2982.72 1380)">0.2</text></g><g clip-path="url(#clip14)"><text font-family="Calibri,Calibri_MSFontService,sans-serif" font-weight="400" font-size="55" transform="matrix(1 0 0 1 2982.72 1232)">0.4</text></g><g clip-path="url(#clip15)"><text font-family="Calibri,Calibri_MSFontService,sans-serif" font-weight="400" font-size="55" transform="matrix(1 0 0 1 2982.72 1083)">0.6</text></g><g clip-path="url(#clip16)"><text font-family="Calibri,Calibri_MSFontService,sans-serif" font-weight="400" font-size="55" transform="matrix(1 0 0 1 2982.72 935)">0.8</text></g><g clip-path="url(#clip17)"><text font-family="Calibri,Calibri_MSFontService,sans-serif" font-weight="400" font-size="55" transform="matrix(1 0 0 1 3024.47 786)">1</text></g><g clip-path="url(#clip18)"><text font-family="Calibri,Calibri_MSFontService,sans-serif" font-weight="400" font-size="55" transform="matrix(1 0 0 1 2982.72 638)">1.2</text></g><g clip-path="url(#clip19)"><text font-family="Calibri,Calibri_MSFontService,sans-serif" font-weight="400" font-size="55" transform="matrix(0.707107 -0.707107 0.707107 0.707107 2900.3 1899)">ResNet18 - Baseline</text></g><g clip-path="url(#clip20)"><text font-family="Calibri,Calibri_MSFontService,sans-serif" font-weight="400" font-size="55" transform="matrix(0.707107 -0.707107 0.707107 0.707107 3098.92 1896)">ResNet18 - Average</text></g><g clip-path="url(#clip21)"><text font-family="Calibri,Calibri_MSFontService,sans-serif" font-weight="400" font-size="55" transform="matrix(0.707107 -0.707107 0.707107 0.707107 3361.51 1830)">ResNet18 - Min</text></g><g clip-path="url(#clip22)"><text font-family="Calibri,Calibri_MSFontService,sans-serif" font-weight="400" font-size="55" transform="matrix(0.707107 -0.707107 0.707107 0.707107 3551.32 1836)">ResNet18 - Max</text></g><g clip-path="url(#clip23)"><text font-family="Calibri,Calibri_MSFontService,sans-serif" font-weight="400" font-size="55" transform="matrix(0.707107 -0.707107 0.707107 0.707107 3684.63 1898)">ResNet18 - MinMax</text></g><g clip-path="url(#clip24)"><text font-family="Calibri,Calibri_MSFontService,sans-serif" font-weight="400" font-size="55" transform="matrix(0.707107 -0.707107 0.707107 0.707107 3879.9 1899)">ResNet50 - Baseline</text></g><g clip-path="url(#clip25)"><text font-family="Calibri,Calibri_MSFontService,sans-serif" font-weight="400" font-size="55" transform="matrix(0.707107 -0.707107 0.707107 0.707107 4078.53 1896)">ResNet50 - Average</text></g><g clip-path="url(#clip26)"><text font-family="Calibri,Calibri_MSFontService,sans-serif" font-weight="400" font-size="55" transform="matrix(0.707107 -0.707107 0.707107 0.707107 4341.12 1830)">ResNet50 - Min</text></g><g clip-path="url(#clip27)"><text font-family="Calibri,Calibri_MSFontService,sans-serif" font-weight="400" font-size="55" transform="matrix(0.707107 -0.707107 0.707107 0.707107 4530.93 1836)">ResNet50 - Max</text></g><g clip-path="url(#clip28)"><text font-family="Calibri,Calibri_MSFontService,sans-serif" font-weight="400" font-size="55" transform="matrix(0.707107 -0.707107 0.707107 0.707107 4664.24 1898)">ResNet50 - MinMax</text></g><g clip-path="url(#clip29)"><text font-family="Calibri,Calibri_MSFontService,sans-serif" font-weight="400" font-size="55" transform="matrix(0.707107 -0.707107 0.707107 0.707107 4801.42 1957)">MobileNetV2 - Baseline</text></g><g clip-path="url(#clip30)"><text font-family="Calibri,Calibri_MSFontService,sans-serif" font-weight="400" font-size="55" transform="matrix(0.707107 -0.707107 0.707107 0.707107 5000.05 1954)">MobileNetV2 - Average</text></g><g clip-path="url(#clip31)"><text font-family="Calibri,Calibri_MSFontService,sans-serif" font-weight="400" font-size="55" transform="matrix(6.12323e-17 -1 1 6.12323e-17 5626.94 1168)">Accuracy</text></g><g clip-path="url(#clip32)"><text font-family="Calibri,Calibri_MSFontService,sans-serif" font-weight="400" font-size="55" transform="matrix(6.12323e-17 -1 1 6.12323e-17 2953.82 1348)">Footprint versus baseline</text></g><g clip-path="url(#clip33)"><text font-family="Calibri,Calibri_MSFontService,sans-serif" font-weight="400" font-size="55" transform="matrix(1 0 0 1 4015.41 2034)">Hyperparameter Values</text></g><g clip-path="url(#clip34)"><text font-family="Calibri,Calibri_MSFontService,sans-serif" font-weight="400" font-size="83" transform="matrix(1 0 0 1 3176.41 436)">Footprint and Accuracy of Different Flattening Algorithms Applied </text></g><g clip-path="url(#clip35)"><text font-family="Calibri,Calibri_MSFontService,sans-serif" font-weight="400" font-size="83" transform="matrix(1 0 0 1 3787.05 537)">To Greedy/Exhaustive Search</text></g><g clip-path="url(#clip36)"><rect x="4007" y="2138" width="30" height="30" fill="#725BFF"/></g><g clip-path="url(#clip37)"><text font-family="Calibri,Calibri_MSFontService,sans-serif" font-weight="400" font-size="55" transform="matrix(1 0 0 1 4050.61 2168)">Footprint</text></g><g clip-path="url(#clip38)"><path d="M4339 2153.5C4339 2159.85 4333.85 2165 4327.5 2165 4321.15 2165 4316 2159.85 4316 2153.5 4316 2147.15 4321.15 2142 4327.5 2142 4333.85 2142 4339 2147.15 4339 2153.5Z" fill="#400D67"/></g><g clip-path="url(#clip39)"><text font-family="Calibri,Calibri_MSFontService,sans-serif" font-weight="400" font-size="55" transform="matrix(1 0 0 1 4356.23 2168)">Accuracy</text></g><rect x="2845.5" y="323.5" width="2854" height="1904" stroke="#D9D9D9" stroke-width="3.4375" stroke-linejoin="round" stroke-miterlimit="10" fill="none"/></g></svg>